<svg xmlns="http://www.w3.org/2000/svg" viewBox="0 0 2172 154" preserveAspectRatio="xMidYMid slice" role="img" aria-label="Warli style Marathi TTS decorative header">
  <defs>
    <linearGradient id="bg" x1="0" y1="0" x2="0" y2="1">
      <stop offset="0" stop-color="#C34A19"/>
      <stop offset="1" stop-color="#9F320F"/>
    </linearGradient>
  </defs>
  <rect width="2172" height="154" fill="url(#bg)"/>
  <g fill="#FFF8EC" transform="translate(0.000000,154.000000) scale(0.100000,-0.100000)">
<path d="M0 1504 c0 -9 20 -39 45 -67 56 -64 56 -65 -2 -70 -27 -2 4811 -4
10749 -5 l10796 -2 64 66 c96 99 104 94 -151 94 -141 0 -221 -4 -221 -10 0 -5
19 -10 42 -10 l43 0 -42 -42 -43 -42 -38 37 -38 37 -35 -35 -35 -35 -39 40
-39 40 32 0 c18 0 32 5 32 10 0 6 -34 10 -82 10 -45 0 -79 -3 -75 -6 8 -8 -62
-94 -77 -94 -6 0 -24 16 -40 36 l-28 36 -37 -36 -36 -35 -33 40 c-30 35 -31
39 -13 39 12 0 21 5 21 10 0 6 -40 10 -100 10 -65 0 -100 -4 -100 -11 0 -6 15
-9 34 -8 50 5 51 -2 6 -46 l-40 -39 -38 37 -38 37 -30 -37 -31 -37 -31 34
c-37 41 -39 50 -12 50 11 0 20 5 20 10 0 13 -187 13 -195 0 -4 -6 9 -10 31
-10 l37 0 -39 -40 -39 -39 -32 31 -33 32 -35 -34 -36 -35 -34 40 -33 40 34 3
c78 7 27 22 -76 22 -67 0 -110 -4 -110 -10 0 -5 16 -10 35 -10 43 0 43 2 -4
-49 l-39 -42 -30 38 -31 38 -35 -34 -36 -35 -40 39 c-23 22 -36 41 -30 43 5 2
8 8 4 13 -8 13 -144 12 -144 -2 0 -6 7 -9 15 -5 27 10 16 -19 -20 -54 l-35
-34 -35 34 -35 34 -34 -33 -34 -33 -47 38 -46 39 45 3 c25 2 46 7 46 13 0 14
-307 12 -316 -2 -5 -8 1 -10 18 -6 41 11 41 -4 1 -45 -46 -47 -54 -47 -88 -2
l-27 36 -39 -38 -39 -38 -39 38 c-22 22 -37 45 -34 52 4 11 -14 14 -91 14 -57
0 -96 -4 -96 -10 0 -5 14 -10 30 -10 37 0 37 1 -4 -44 -43 -44 -42 -44 -88 1
l-38 37 -39 -38 c-46 -45 -66 -44 -118 4 -40 36 -40 40 -8 40 14 0 25 5 25 10
0 6 -47 10 -121 10 -85 0 -118 -3 -113 -11 3 -6 19 -9 35 -5 43 8 42 -7 -1
-49 l-40 -39 -38 37 -38 37 -37 -37 -37 -37 -35 34 c-45 43 -44 50 6 50 24 0
38 4 34 10 -4 6 -66 10 -153 10 -107 0 -143 -3 -135 -11 6 -6 32 -10 57 -8 55
5 55 4 15 -44 -37 -45 -44 -46 -86 -5 l-33 32 -33 -32 -33 -32 -39 40 -39 40
38 0 c22 0 35 4 31 10 -4 6 -55 10 -121 10 -74 0 -113 -4 -109 -10 3 -6 22
-10 41 -10 42 0 42 0 -2 -44 -35 -35 -38 -36 -60 -21 -13 8 -28 24 -35 36 -11
21 -12 20 -51 -17 l-40 -39 -34 39 c-42 49 -42 53 1 48 21 -3 35 0 35 7 0 7
-30 11 -89 11 -67 0 -88 -3 -87 -13 1 -14 -58 -87 -72 -87 -4 0 -23 16 -42 35
l-35 36 -31 -38 -32 -38 -35 40 -35 40 29 3 c16 2 29 7 29 13 0 5 -52 9 -120
9 -73 0 -120 -4 -120 -10 0 -5 21 -10 47 -10 l48 0 -42 -42 -43 -42 -38 37
-38 37 -35 -36 -36 -35 -42 40 -43 41 36 0 c19 0 38 5 41 10 4 6 -37 10 -115
10 -78 0 -119 -4 -115 -10 3 -6 22 -10 42 -10 l35 0 -40 -40 c-49 -49 -49 -49
-89 -3 l-31 38 -40 -39 -40 -38 -35 38 -36 39 45 3 c24 2 44 7 44 13 0 5 -59
9 -141 9 -91 0 -138 -4 -134 -10 3 -6 24 -10 46 -10 47 0 47 3 2 -48 l-37 -42
-44 42 -43 43 -32 -37 -32 -38 -38 35 c-45 43 -45 45 -7 45 17 0 30 5 30 10 0
6 -49 10 -127 10 -87 0 -123 -3 -113 -10 8 -5 30 -10 48 -10 40 0 40 1 -10
-50 l-42 -42 -34 42 -35 41 -37 -36 -38 -37 -35 38 -36 39 50 3 c27 2 49 7 49
13 0 5 -60 9 -145 9 -90 0 -145 -4 -145 -10 0 -5 23 -10 52 -10 l52 0 -39 -40
c-48 -49 -52 -49 -92 -3 l-33 38 -35 -40 -34 -40 -36 35 c-43 41 -44 50 -5 50
17 0 30 5 30 10 0 6 -47 10 -122 9 -76 0 -115 -4 -103 -9 11 -4 30 -6 43 -3
31 7 27 -6 -13 -50 -43 -46 -45 -46 -85 -1 l-32 37 -37 -37 -38 -37 -36 36
c-46 46 -47 45 14 45 31 0 48 4 44 10 -4 6 -66 10 -153 10 -107 0 -143 -3
-135 -11 6 -6 30 -10 52 -7 49 4 49 6 9 -43 -39 -48 -45 -48 -85 -2 l-33 38
-34 -39 -34 -40 -40 35 c-50 42 -51 49 -7 49 19 0 35 5 35 10 0 6 -45 10 -117
9 -102 -1 -112 -2 -74 -11 l44 -10 -41 -41 -42 -41 -38 37 -38 37 -35 -36 -36
-35 -36 36 c-47 47 -46 54 5 48 29 -4 39 -3 34 5 -10 16 -256 17 -256 1 0 -8
14 -10 39 -6 55 7 56 1 5 -52 l-45 -46 -37 42 -37 43 -38 -38 -37 -37 -35 38
c-42 46 -43 47 -5 47 17 0 30 5 30 10 0 6 -46 9 -122 8 -68 -1 -104 -3 -80 -5
52 -5 52 -9 2 -58 l-40 -39 -38 37 -38 37 -37 -37 -37 -38 -42 43 -43 42 48 0
c30 0 46 4 42 10 -4 6 -60 10 -136 10 -93 0 -128 -3 -123 -11 4 -7 20 -9 39
-6 48 8 50 -2 8 -45 -46 -47 -51 -47 -93 -3 l-34 35 -34 -36 -33 -37 -39 38
c-43 42 -44 55 -5 47 15 -2 25 0 25 7 0 7 -38 11 -121 11 -77 0 -118 -4 -114
-10 3 -5 24 -10 47 -10 l40 0 -33 -39 c-42 -49 -47 -49 -89 -6 l-34 35 -38
-37 -38 -37 -40 39 c-46 44 -44 50 10 46 24 -1 40 2 40 8 0 7 -44 11 -130 11
-80 0 -130 -4 -130 -10 0 -5 18 -10 41 -10 l40 0 -38 -44 -38 -45 -40 40 -41
39 -37 -37 -37 -38 -42 43 -43 42 38 0 c20 0 37 5 37 10 0 6 -47 10 -121 10
-77 0 -118 -4 -114 -10 3 -6 25 -10 48 -10 l42 0 -42 -42 -43 -42 -40 39 -40
39 -34 -40 -35 -39 -37 40 -38 40 32 3 c75 7 24 22 -75 22 -73 0 -103 -3 -93
-10 8 -5 23 -7 33 -4 25 8 21 -2 -16 -46 -40 -49 -42 -49 -83 -2 l-33 37 -31
-38 c-39 -46 -46 -45 -89 4 -31 36 -32 39 -12 39 11 0 21 5 21 10 0 6 -43 10
-110 10 -67 0 -110 -4 -110 -10 0 -5 20 -10 45 -10 54 0 55 -6 12 -48 -42 -40
-48 -40 -82 4 l-27 36 -39 -38 -39 -38 -35 38 c-43 47 -43 46 1 46 21 0 33 4
29 10 -4 6 -57 10 -126 10 -78 0 -118 -4 -114 -10 3 -6 23 -10 43 -10 l37 0
-43 -42 -43 -43 -34 40 -34 40 -39 -38 -38 -37 -39 40 c-21 22 -34 40 -27 40
7 0 12 5 12 10 0 6 -25 10 -55 10 -32 0 -55 -4 -55 -11 0 -15 -62 -89 -75 -89
-6 0 -27 16 -46 36 l-34 35 -32 -38 -33 -38 -34 40 -34 40 34 3 c19 2 32 7 29
13 -8 12 -235 12 -235 -1 0 -5 16 -10 35 -10 43 0 43 1 0 -46 l-35 -38 -33 32
c-41 39 -41 39 -78 0 l-29 -33 -42 43 -43 42 33 0 c17 0 32 5 32 10 0 15 -150
13 -150 -2 -1 -7 -16 -31 -34 -52 l-34 -39 -32 37 -33 37 -31 -30 -32 -31 -24
28 c-32 37 -31 47 3 43 15 -1 27 2 27 8 0 7 -27 11 -69 11 -60 0 -70 -3 -76
-20 -7 -22 -76 -80 -96 -80 -13 0 -69 61 -69 74 0 4 29 6 64 6 36 0 68 5 71
10 4 7 -50 10 -155 10 -105 0 -159 -3 -155 -10 3 -5 25 -10 48 -10 l41 0 -39
-40 c-48 -49 -53 -49 -89 -4 l-29 37 -33 -39 -32 -39 -41 40 c-52 49 -51 54 4
47 30 -3 45 -1 45 7 0 7 -31 11 -96 11 -66 0 -93 -3 -88 -11 7 -12 -63 -89
-82 -89 -6 0 -24 16 -39 36 l-27 36 -39 -38 -39 -38 -35 40 -35 39 30 3 c16 2
30 7 30 13 0 5 -50 9 -115 9 -70 0 -115 -4 -115 -10 0 -5 18 -10 40 -10 49 0
49 1 4 -44 -43 -43 -43 -43 -79 -6 -36 38 -44 38 -77 -2 l-27 -33 -36 37 c-43
45 -43 48 0 48 19 0 35 5 35 10 0 6 -49 10 -127 10 -96 -1 -123 -3 -110 -11
10 -6 27 -9 38 -6 33 9 29 -9 -11 -48 l-40 -39 -38 37 -38 37 -37 -37 -37 -37
-40 39 c-52 50 -51 53 16 47 41 -3 55 -2 50 7 -5 7 -56 11 -159 11 -113 -1
-147 -3 -134 -11 10 -6 34 -9 53 -7 43 5 42 4 -5 -43 -47 -48 -49 -48 -85 -3
l-28 36 -32 -31 c-41 -40 -54 -39 -96 4 l-34 35 31 0 c18 0 35 5 38 10 4 6
-35 10 -109 10 -95 0 -114 -2 -110 -14 5 -14 -61 -85 -80 -86 -5 0 -25 16 -43
37 l-34 36 -40 -39 -39 -38 -43 42 -42 42 48 0 c26 0 47 5 47 10 0 6 -53 10
-140 10 -93 0 -140 -4 -140 -11 0 -6 18 -9 45 -8 60 4 61 -1 10 -51 l-44 -43
-37 42 -38 41 -38 -37 -38 -37 -34 40 -34 39 39 3 c22 2 37 7 34 13 -8 12
-265 12 -265 -1 0 -5 21 -10 47 -10 l47 0 -39 -40 c-48 -49 -52 -49 -95 -5
l-34 35 -36 -35 -36 -35 -39 40 -39 40 31 0 c18 0 35 5 38 10 4 6 -38 10 -119
10 -87 0 -126 -3 -126 -11 0 -8 14 -10 39 -6 53 7 54 4 7 -47 l-41 -43 -41 38
-40 39 -32 -36 -33 -37 -33 39 -34 39 29 3 c16 2 27 8 24 13 -9 13 -245 12
-245 -2 0 -6 16 -10 38 -9 20 1 40 2 45 1 8 -1 -70 -81 -80 -81 -4 0 -21 14
-38 30 l-31 30 -24 -25 c-27 -29 -40 -32 -40 -8 0 9 -7 25 -17 35 -15 17 -14
18 20 18 21 0 37 5 37 10 0 6 -45 10 -115 10 -70 0 -115 -4 -115 -10 0 -5 18
-10 40 -10 l40 0 -41 -41 -41 -41 -32 31 -32 31 -29 -30 c-37 -39 -45 -38 -84
10 l-32 40 41 0 c22 0 40 5 40 10 0 6 -57 10 -150 10 -93 0 -150 -4 -150 -10
0 -5 24 -10 52 -10 l53 0 -42 -42 -43 -42 -40 39 -40 39 -31 -37 c-37 -45 -47
-46 -87 -4 -40 41 -40 47 -2 47 17 0 30 5 30 10 0 6 -51 10 -132 10 -100 -1
-128 -3 -115 -11 11 -6 32 -9 48 -7 37 6 36 1 -7 -46 l-36 -38 -37 36 -37 36
-37 -38 -38 -37 -36 40 -35 40 36 3 c70 6 35 22 -49 22 -61 0 -85 -4 -85 -12
-1 -7 -18 -33 -40 -57 l-38 -44 -39 42 -38 43 -32 -38 -31 -38 -42 42 -42 42
31 0 c17 0 31 5 31 10 0 6 -43 10 -110 10 -67 0 -110 -4 -110 -10 0 -5 18 -10
40 -10 49 0 50 -7 5 -50 l-35 -34 -39 38 -38 37 -31 -35 c-39 -45 -42 -45 -81
4 l-32 40 31 0 c16 0 30 5 30 10 0 6 -45 10 -116 10 -74 0 -113 -4 -109 -10 3
-6 22 -10 41 -10 42 0 42 0 2 -44 -39 -44 -41 -44 -80 0 l-32 36 -33 -36 c-42
-44 -41 -44 -81 -3 -41 42 -40 47 8 47 22 0 40 5 40 10 0 6 -37 10 -90 10 -57
0 -90 -4 -90 -11 0 -14 -62 -89 -75 -89 -5 0 -26 16 -46 36 l-37 36 -28 -36
c-27 -33 -54 -47 -54 -28 0 5 -14 23 -31 40 l-31 32 31 0 c17 0 31 5 31 10 0
6 -44 10 -111 10 -71 0 -108 -4 -104 -10 3 -6 22 -10 41 -10 l35 0 -33 -40
c-40 -49 -45 -49 -88 -5 l-34 35 -39 -37 -39 -38 -35 40 -35 40 36 3 c70 6 35
22 -49 22 -67 0 -85 -3 -85 -14 0 -8 -17 -33 -37 -55 l-37 -42 -42 42 -42 41
-35 -38 -36 -39 -34 40 -35 40 29 3 c16 2 29 7 29 13 0 5 -52 9 -121 9 -77 0
-118 -4 -114 -10 3 -5 25 -10 48 -10 l41 0 -39 -40 c-48 -49 -50 -49 -91 -2
l-34 37 -35 -40 -34 -40 -36 39 c-43 47 -43 46 0 46 19 0 35 5 35 10 0 6 -49
10 -126 10 -81 0 -123 -4 -119 -10 3 -5 25 -10 48 -10 l42 0 -42 -42 -43 -42
-38 37 -38 37 -29 -30 c-36 -38 -44 -38 -85 5 -25 26 -30 35 -17 35 9 0 17 5
17 10 0 11 -88 14 -114 4 -9 -3 -13 -10 -11 -15 6 -9 -43 -89 -54 -89 -12 0
-81 75 -81 87 0 6 10 14 23 16 13 3 8 5 -15 6 -29 1 -38 -3 -38 -15z m21634
-55 l-52 -51 -35 24 c-20 13 -46 36 -57 51 l-21 27 108 0 108 0 -51 -51z
m-21352 -6 c59 -57 53 -63 -64 -63 l-101 0 39 35 c21 19 45 34 52 35 7 0 15 7
18 15 9 21 14 19 56 -22z m1224 -62 c-2 -3 -57 -5 -121 -3 l-118 3 44 45 c44
45 63 53 73 32 3 -9 8 -8 17 6 10 17 15 15 60 -30 26 -26 46 -50 45 -53z
m4968 84 c-10 -25 27 -31 46 -8 l17 21 44 -28 c24 -15 53 -37 63 -49 l19 -21
-146 0 c-81 0 -147 2 -147 4 0 2 20 25 45 50 44 46 69 59 59 31z m558 -39 c21
-17 38 -34 38 -38 0 -5 -52 -8 -115 -8 -63 0 -115 3 -115 8 1 16 68 83 75 73
10 -18 48 -14 41 4 -7 20 24 4 76 -39z m1791 20 c15 -11 34 -30 42 -43 l15
-23 -101 0 -102 0 44 48 c46 51 55 52 102 18z m770 -29 c30 -33 20 -37 -100
-37 l-117 0 39 41 c32 33 45 39 67 35 18 -4 28 0 32 11 7 17 31 1 79 -50z
m1957 -29 c0 -4 -50 -8 -112 -8 l-112 0 44 45 c31 31 46 41 52 32 5 -9 12 -8
25 5 16 17 19 16 60 -24 24 -23 43 -46 43 -50z m-10935 72 c14 11 22 7 55 -25
22 -22 40 -43 40 -47 0 -4 -49 -8 -110 -8 -60 0 -110 2 -110 5 0 17 86 82 97
73 9 -7 18 -7 28 2z m453 -29 c18 -22 32 -42 32 -45 0 -3 -49 -6 -110 -6 -60
0 -110 3 -109 8 0 4 19 22 41 41 34 30 42 33 59 23 16 -10 21 -10 25 3 10 25
29 17 62 -24z m784 2 c21 -20 38 -41 38 -45 0 -4 -51 -8 -112 -8 l-113 0 42
42 c34 33 45 39 56 30 11 -10 17 -9 27 3 17 21 19 20 62 -22z m304 20 c13 -17
15 -17 29 1 15 19 16 19 55 -19 22 -22 40 -43 40 -47 0 -4 -53 -8 -117 -8
l-117 0 44 45 c51 52 48 51 66 28z m466 -20 c21 -20 38 -41 38 -45 0 -4 -50
-8 -112 -8 l-112 0 39 40 c40 41 59 49 69 28 4 -10 9 -8 18 5 17 23 16 23 60
-20z m380 0 c21 -20 38 -41 38 -45 0 -4 -47 -8 -105 -8 -58 0 -105 4 -105 8 0
4 16 23 35 42 30 29 36 31 51 19 15 -12 18 -12 28 4 14 23 14 23 58 -20z m324
21 c9 23 27 20 55 -11 60 -67 64 -63 -67 -63 l-118 0 44 45 c41 42 45 44 62
28 16 -14 18 -14 24 1z m474 -29 l44 -45 -122 0 c-67 0 -122 4 -122 8 0 24 68
73 92 67 15 -4 29 -2 32 4 13 20 31 11 76 -34z m429 1 l44 -45 -132 -3 c-73
-2 -135 0 -137 3 -4 7 30 40 68 63 22 15 30 15 48 4 19 -11 24 -11 34 5 16 25
27 22 75 -27z m299 32 c3 10 15 4 38 -19 54 -52 47 -59 -57 -59 -101 0 -99 -3
-40 62 20 23 27 25 39 15 12 -10 16 -9 20 1z m414 -25 c21 -20 38 -41 38 -45
0 -4 -54 -8 -120 -8 -66 0 -120 2 -120 5 0 3 17 20 38 40 39 37 60 43 81 23
10 -11 14 -10 22 5 14 24 18 22 61 -20z m323 20 c4 9 11 17 16 17 12 0 89 -70
89 -81 0 -5 -53 -9 -117 -9 l-118 1 49 44 c45 40 51 43 62 27 12 -16 13 -16
19 1z m477 -20 c21 -20 38 -41 38 -45 0 -4 -55 -8 -122 -8 l-122 0 39 40 c37
38 55 44 84 26 9 -6 17 -3 23 8 13 22 17 21 60 -21z m315 26 c8 -8 17 -7 32 3
20 12 25 10 57 -24 51 -56 47 -58 -83 -58 l-117 0 44 45 c48 49 51 50 67 34z
m1315 -7 c12 16 16 14 51 -18 58 -54 52 -59 -73 -59 -60 0 -110 3 -110 7 0 3
21 25 46 47 43 38 48 40 60 23 12 -16 14 -16 26 0z m448 -27 l44 -45 -119 0
-120 0 42 42 c37 37 44 40 59 27 15 -12 18 -12 28 4 15 23 16 23 66 -28z m319
-43 c-61 -1 -113 -1 -115 1 -3 2 12 21 32 42 32 34 38 37 56 26 17 -11 23 -10
36 3 15 15 20 12 60 -27 l43 -42 -112 -3z m455 42 c14 -18 26 -35 26 -38 0 -3
-50 -6 -112 -6 l-112 0 39 40 c35 35 43 39 72 34 22 -4 33 -2 33 5 0 17 23 2
54 -35z m521 26 c7 0 15 6 18 13 3 7 23 -6 53 -35 l49 -48 -120 0 -120 1 50
45 c27 26 51 41 53 35 2 -6 10 -11 17 -11z m761 3 c13 -17 15 -17 30 2 15 20
16 19 56 -25 l40 -45 -107 -3 c-59 -1 -110 0 -113 3 -5 5 67 85 76 85 3 0 11
-8 18 -17z m419 3 c17 13 22 11 57 -23 21 -20 38 -41 38 -45 0 -4 -52 -8 -115
-8 -63 0 -115 2 -115 5 0 2 19 22 43 44 36 34 44 38 57 26 13 -11 18 -11 35 1z
m361 -3 c13 -17 15 -17 27 -1 13 16 17 14 50 -20 20 -21 37 -41 37 -45 0 -4
-47 -7 -105 -7 -58 0 -105 2 -105 5 0 7 72 85 78 85 3 0 11 -8 18 -17z m414 7
c8 12 16 8 50 -25 22 -21 40 -43 40 -47 0 -4 -50 -8 -112 -8 l-112 0 43 44
c38 38 46 43 63 33 15 -10 20 -9 28 3z m748 -2 c10 -10 17 -10 33 0 19 12 25
9 61 -30 l40 -43 -113 -3 c-61 -1 -113 -1 -115 1 -4 4 68 87 77 87 3 0 11 -6
17 -12z m441 -1 c16 10 24 6 55 -26 20 -20 36 -40 36 -44 0 -4 -52 -7 -115 -7
-63 0 -115 2 -115 5 0 2 19 22 42 43 35 33 45 38 60 28 13 -8 23 -8 37 1z
m356 -4 c12 -17 14 -17 34 1 21 19 22 19 61 -19 22 -22 40 -43 40 -47 0 -4
-55 -8 -122 -8 l-122 0 44 45 c51 51 49 51 65 28z m440 3 c16 16 19 14 63 -29
l47 -47 -123 0 c-67 0 -122 2 -122 5 0 2 19 22 43 44 38 35 44 38 58 25 15
-13 19 -13 34 2z m400 4 c14 11 22 7 55 -25 22 -22 40 -43 40 -47 0 -4 -53 -8
-117 -8 l-118 0 48 46 c39 38 50 44 62 34 12 -10 18 -10 30 0z m485 -77 c0 -2
-53 -3 -117 -3 l-118 0 43 42 c36 37 45 41 61 31 16 -10 22 -9 32 3 11 13 18
9 56 -28 23 -23 43 -43 43 -45z m263 75 c3 -10 9 -10 27 0 21 13 26 10 61 -24
22 -21 39 -42 39 -46 0 -4 -53 -8 -117 -8 l-117 0 44 45 c47 48 56 52 63 33z
m402 -5 c6 -17 7 -17 21 1 14 19 15 19 54 -19 22 -22 40 -43 40 -47 0 -4 -49
-8 -110 -8 -60 0 -110 2 -110 5 0 6 84 84 91 85 4 0 10 -8 14 -17z m400 0 c6
-17 7 -17 21 1 14 19 15 19 54 -19 22 -22 40 -43 40 -47 0 -4 -49 -8 -110 -8
-60 0 -110 2 -110 5 0 6 84 84 91 85 4 0 10 -8 14 -17z m479 -23 c20 -22 36
-42 36 -45 0 -3 -53 -5 -117 -5 l-118 0 43 42 c38 39 44 42 64 29 18 -11 22
-11 30 3 13 24 22 20 62 -24z m320 24 c6 -15 8 -15 24 -1 17 16 21 14 55 -21
20 -21 37 -41 37 -45 0 -4 -49 -7 -110 -7 -60 0 -110 3 -110 6 0 8 83 83 91
84 4 0 10 -7 13 -16z m422 1 c14 18 16 18 54 -20 21 -21 37 -42 34 -47 -3 -4
-55 -8 -117 -8 l-111 0 44 45 c42 43 45 44 63 27 18 -16 20 -16 33 3z m389 0
c15 19 17 18 63 -28 l47 -47 -123 0 -123 0 46 46 c44 43 48 44 61 27 13 -17
15 -17 29 2z m447 -22 c21 -20 38 -41 38 -45 0 -4 -53 -8 -117 -8 l-118 0 43
42 c36 37 45 41 61 31 15 -10 22 -9 31 2 17 21 19 20 62 -22z m428 -45 c0 -4
-53 -8 -117 -8 l-118 0 43 42 c36 37 45 41 61 31 15 -9 23 -9 37 2 17 12 23
10 57 -23 20 -20 37 -40 37 -44z m258 70 c10 -10 17 -10 33 0 18 12 24 9 60
-30 l39 -43 -111 -3 c-62 -1 -114 0 -117 3 -6 5 67 85 78 85 3 0 12 -6 18 -12z
m447 1 c4 8 17 3 39 -16 17 -15 43 -36 56 -45 24 -16 20 -17 -107 -17 -73 -1
-133 2 -132 7 0 4 18 22 40 41 32 27 42 31 54 21 12 -10 16 -9 21 5 5 12 9 13
14 5 6 -9 9 -9 15 -1z m867 -14 c34 -29 46 -31 55 -9 15 40 53 36 102 -11 l46
-45 -162 0 c-92 0 -163 4 -163 9 0 8 79 80 89 81 2 0 16 -11 33 -25z m483 9
c13 17 15 17 49 -9 20 -15 36 -29 36 -30 0 -2 3 -10 6 -19 5 -14 -8 -16 -105
-16 -61 0 -111 4 -111 9 0 5 19 26 42 46 39 36 42 37 55 19 14 -18 15 -18 28
0z m455 -66 c0 -4 -44 -8 -97 -8 l-97 0 39 40 c30 31 44 38 62 34 15 -4 23 -2
23 7 1 15 70 -58 70 -73z m315 64 c11 -5 33 -24 49 -41 l30 -31 -119 0 -119 0
44 45 c45 46 70 52 115 27z m320 8 c4 -6 14 -8 24 -5 16 5 34 -9 70 -57 13
-17 7 -18 -95 -18 l-108 0 44 45 c46 47 55 52 65 35z m451 -32 l39 -43 -109
-3 c-60 -1 -110 -1 -113 1 -2 2 13 21 32 43 31 33 38 37 54 27 15 -10 22 -9
31 2 18 22 24 19 66 -27z m345 27 c15 14 20 12 53 -22 20 -21 36 -41 36 -45 0
-4 -55 -8 -122 -8 l-122 0 35 36 c43 45 69 57 88 38 13 -12 17 -11 32 1z
m-2811 -7 c15 -10 22 -10 32 0 6 6 18 12 26 12 17 0 92 -58 92 -71 0 -5 -58
-9 -130 -9 -71 0 -130 2 -130 5 0 7 74 74 83 75 4 0 16 -6 27 -12z"/>
<path d="M1250 1510 c0 -5 18 -10 41 -10 24 0 38 4 34 10 -3 6 -22 10 -41 10
-19 0 -34 -4 -34 -10z"/>
<path d="M2045 1510 c3 -5 15 -10 25 -10 10 0 22 5 25 10 4 6 -7 10 -25 10
-18 0 -29 -4 -25 -10z"/>
<path d="M3180 1510 c0 -5 16 -10 35 -10 19 0 35 5 35 10 0 6 -16 10 -35 10
-19 0 -35 -4 -35 -10z"/>
<path d="M6340 1510 c0 -5 18 -10 40 -10 22 0 40 5 40 10 0 6 -18 10 -40 10
-22 0 -40 -4 -40 -10z"/>
<path d="M8010 1510 c0 -5 14 -10 30 -10 17 0 30 5 30 10 0 6 -13 10 -30 10
-16 0 -30 -4 -30 -10z"/>
<path d="M9770 1510 c0 -5 11 -10 25 -10 14 0 25 5 25 10 0 6 -11 10 -25 10
-14 0 -25 -4 -25 -10z"/>
<path d="M16860 1510 c0 -5 14 -10 30 -10 17 0 30 5 30 10 0 6 -13 10 -30 10
-16 0 -30 -4 -30 -10z"/>
<path d="M18330 1510 c0 -5 12 -10 26 -10 14 0 23 4 19 10 -3 6 -15 10 -26 10
-10 0 -19 -4 -19 -10z"/>
<path d="M18725 1510 c-4 -6 7 -10 24 -10 17 0 31 5 31 10 0 6 -11 10 -24 10
-14 0 -28 -4 -31 -10z"/>
<path d="M19610 1510 c0 -5 11 -10 25 -10 14 0 25 5 25 10 0 6 -11 10 -25 10
-14 0 -25 -4 -25 -10z"/>
<path d="M20890 1510 c0 -5 11 -10 25 -10 14 0 25 5 25 10 0 6 -11 10 -25 10
-14 0 -25 -4 -25 -10z"/>
<path d="M1670 1331 c-14 -5 -58 -11 -99 -15 -40 -4 -85 -12 -100 -18 l-26
-11 35 -8 c19 -4 43 -6 53 -3 11 4 24 -1 32 -13 13 -17 15 -17 43 0 17 9 42
17 56 17 14 0 26 4 26 8 0 5 11 15 25 22 44 23 12 38 -45 21z"/>
<path d="M451 1273 l-33 -35 26 -27 c33 -35 33 -46 0 -25 -21 14 -27 15 -34 4
-12 -20 0 -40 24 -40 22 0 46 -17 46 -32 0 -5 -13 -2 -30 7 -37 19 -40 19 -40
-1 0 -26 38 -81 60 -87 17 -4 20 -14 20 -60 0 -30 3 -69 6 -86 8 -39 -6 -40
-29 -1 -17 28 -17 30 -1 30 16 0 15 2 -3 23 -11 12 -23 34 -27 50 -7 31 -36
37 -36 7 0 -24 -15 -26 -24 -4 -4 9 0 21 9 28 19 15 9 58 -14 54 -9 -2 -17
-13 -19 -26 -2 -12 -8 -22 -13 -22 -13 0 -11 34 2 47 14 14 3 49 -16 57 -10 4
-15 -2 -15 -17 l0 -22 -18 21 c-28 34 -49 37 -57 6 -5 -21 -1 -31 20 -49 l26
-23 -26 0 c-41 0 -25 -24 18 -28 42 -4 51 -22 11 -22 -16 0 -24 -5 -21 -12 2
-8 22 -13 48 -13 66 0 115 -50 72 -74 -26 -14 1 -41 41 -41 56 0 82 -42 89
-146 4 -49 5 -90 3 -91 -2 -2 -18 10 -36 27 -18 16 -37 30 -44 30 -6 0 -3 5 7
11 24 14 21 43 -8 76 -22 26 -24 26 -25 7 0 -23 -25 -62 -34 -53 -4 3 0 22 8
41 11 26 12 38 4 46 -23 23 -38 13 -38 -24 0 -21 -4 -33 -10 -29 -5 3 -10 19
-10 35 0 41 -10 60 -31 60 -23 0 -24 -13 -2 -48 l17 -27 -27 24 c-15 14 -27
32 -27 41 0 22 -9 30 -25 23 -8 -2 -11 -11 -9 -18 5 -11 0 -12 -25 -2 -44 16
-61 -2 -36 -39 15 -23 22 -26 54 -21 27 3 44 -1 62 -14 15 -12 17 -17 6 -13
-9 3 -33 3 -52 0 -31 -6 -34 -9 -25 -26 13 -24 31 -25 71 -5 21 11 34 13 47 6
15 -10 15 -10 -3 -11 -32 -1 -73 -39 -54 -51 22 -14 41 -11 66 13 29 27 40 18
18 -16 -17 -26 -17 -26 9 -26 14 0 35 6 46 12 18 11 25 8 66 -33 43 -43 47
-53 64 -135 33 -162 48 -204 76 -204 30 0 30 -6 -5 118 -16 56 -35 127 -41
158 l-12 55 43 57 c23 31 44 59 46 61 2 3 9 -1 15 -7 14 -14 58 -16 58 -3 0 5
-12 14 -27 20 -27 11 -27 11 7 6 19 -3 37 -10 38 -15 6 -16 22 -11 22 6 0 8 4
12 10 9 14 -9 50 13 50 30 0 9 -10 15 -25 15 -33 0 -40 -3 -37 -16 1 -6 -10
-9 -28 -6 -31 4 -42 22 -15 22 9 0 18 7 21 15 5 11 22 15 64 15 65 0 90 17 40
26 l-31 7 30 31 c37 39 38 46 7 46 -14 0 -28 5 -31 10 -12 19 -35 -11 -35 -45
0 -18 -7 -38 -15 -45 -12 -10 -13 -6 -8 23 7 45 -13 59 -39 28 -10 -13 -15
-27 -12 -32 8 -13 -6 -69 -17 -69 -5 0 -9 16 -9 35 0 47 -12 44 -49 -11 -38
-56 -40 -89 -3 -52 29 29 19 -4 -13 -42 -19 -23 -39 -49 -44 -58 -16 -29 -24
-5 -34 103 -9 102 -9 106 14 140 16 23 25 30 27 20 4 -18 13 -18 63 -4 50 16
63 59 17 59 -10 0 -18 5 -18 10 0 7 13 8 34 5 34 -7 48 2 52 34 2 9 -7 12 -32
9 -39 -5 -42 15 -3 20 33 5 49 20 49 47 0 32 -33 23 -64 -17 -15 -19 -26 -26
-30 -19 -4 6 9 25 28 43 27 25 33 37 26 48 -8 12 -13 13 -27 2 -10 -6 -28 -16
-40 -22 -26 -11 -29 -20 -11 -38 8 -8 9 -12 1 -12 -6 0 -13 6 -16 13 -3 9 -7
9 -20 -1 -15 -12 -20 -36 -32 -127 -10 -81 -38 -85 -43 -6 -2 41 1 56 14 65
18 14 46 84 35 90 -4 3 -13 1 -21 -5 -25 -15 -45 -12 -30 6 7 8 21 15 31 15
12 0 19 7 19 20 0 24 -17 26 -41 4 -10 -9 -19 -11 -23 -5 -4 5 7 18 24 27 33
20 35 26 20 55 -15 26 -27 24 -44 -8 -10 -19 -15 -23 -16 -11 0 9 5 20 10 23
12 7 13 42 2 49 -4 2 -22 -11 -41 -31z m24 -193 c4 -7 12 -7 25 0 29 16 45 13
30 -5 -16 -19 -60 -19 -86 0 -19 14 -19 14 3 15 12 0 25 -5 28 -10z m133 -37
c-2 -14 -8 -28 -14 -30 -7 -2 -9 8 -6 27 5 37 25 40 20 3z"/>
<path d="M8172 1283 c2 -18 -2 -27 -10 -25 -18 3 -15 -5 13 -42 27 -36 33 -55
11 -37 -8 7 -17 8 -20 3 -6 -11 9 -25 37 -35 20 -7 23 -37 3 -37 -7 0 -26 10
-41 21 l-27 22 4 -23 c2 -13 -3 -25 -10 -28 -10 -3 -13 5 -10 29 4 42 -18 50
-27 10 -5 -24 -12 -31 -31 -31 -32 0 -30 -10 6 -40 17 -14 30 -30 30 -37 0 -6
5 -13 11 -15 6 -2 12 -16 12 -31 0 -16 7 -32 18 -37 23 -13 32 -13 23 1 -3 6
6 3 22 -7 21 -14 29 -15 32 -6 3 9 8 8 18 -5 15 -21 19 -113 4 -113 -5 0 -10
4 -10 10 0 5 -11 26 -25 46 -14 20 -25 32 -25 25 0 -15 -20 -14 -20 2 -1 17
-47 49 -68 45 -26 -5 -26 -35 2 -63 13 -13 21 -27 16 -30 -5 -3 -11 -1 -15 5
-9 15 -35 12 -35 -5 0 -8 14 -18 32 -23 43 -11 52 -37 9 -27 -17 4 -31 3 -31
-2 0 -16 130 -134 160 -145 12 -4 -29 -200 -45 -216 -3 -4 -15 4 -25 18 -23
30 -25 41 -6 34 17 -6 27 29 19 67 -7 35 -23 39 -23 6 0 -23 -17 -47 -33 -47
-11 0 1 71 14 84 12 13 11 43 -2 51 -16 10 -22 -1 -24 -42 -1 -45 -16 -49 -29
-10 -8 22 -7 35 7 59 20 35 14 51 -8 22 -13 -18 -14 -17 -16 16 l-1 35 -12
-37 c-10 -34 -13 -36 -23 -19 -7 11 -8 23 -2 32 12 19 11 59 -1 59 -5 0 -10
-9 -10 -20 0 -11 -4 -20 -10 -20 -5 0 -10 3 -10 8 0 18 -41 72 -51 67 -6 -5
-5 -15 5 -31 18 -27 20 -38 6 -29 -5 3 -10 0 -10 -8 0 -8 11 -18 25 -21 31 -8
24 -26 -8 -19 -21 4 -22 4 -3 -11 11 -9 27 -16 37 -16 9 0 23 -7 30 -16 12
-15 11 -16 -11 -9 -35 11 -44 11 -50 0 -3 -5 14 -14 38 -20 39 -9 61 -27 62
-48 0 -4 -16 0 -37 8 -20 8 -38 13 -41 10 -11 -11 17 -27 56 -32 23 -3 43 -12
47 -20 4 -13 -3 -14 -42 -9 -44 6 -47 5 -29 -9 11 -8 34 -15 52 -15 23 0 36
-7 48 -25 16 -24 15 -25 -3 -25 -11 0 -24 8 -30 18 -8 13 -12 14 -22 5 -19
-19 18 -45 53 -38 50 8 65 -31 40 -105 -11 -33 -17 -62 -12 -65 12 -7 26 15
45 75 12 37 33 72 66 107 27 28 49 60 48 70 0 15 -3 14 -17 -7 -22 -32 -53
-63 -58 -58 -2 2 1 22 7 44 13 47 56 86 81 73 27 -15 64 -10 89 11 l24 19 -47
1 c-27 0 -48 5 -48 10 0 6 21 10 48 10 51 0 78 12 68 28 -4 8 -16 8 -37 0 -32
-11 -45 -6 -34 11 3 6 23 11 44 11 22 0 44 6 51 15 15 18 -19 22 -51 5 -10 -6
-19 -7 -19 -2 0 13 25 33 32 27 8 -8 58 16 58 28 0 5 -12 6 -27 3 -27 -6 -26
-4 12 29 28 25 35 35 23 35 -12 0 -18 8 -19 23 0 17 -4 13 -16 -15 -18 -45
-32 -49 -35 -10 0 15 -4 5 -7 -22 -7 -60 -31 -76 -31 -21 0 23 -4 34 -11 30
-7 -5 -8 -25 -4 -56 5 -33 3 -49 -4 -49 -10 0 -16 27 -12 58 4 26 -18 10 -48
-35 -34 -51 -35 -56 -21 -83 8 -15 6 -24 -12 -42 -28 -28 -32 -15 -19 58 6 32
11 75 11 96 0 34 4 39 43 59 46 23 98 79 109 116 6 21 3 23 -25 22 -18 -1 -24
-3 -14 -6 26 -7 15 -28 -14 -28 -17 0 -23 5 -21 17 2 14 -4 16 -36 12 l-38 -4
-1 39 c-1 29 4 44 23 62 31 29 41 20 14 -14 -25 -31 -25 -39 -2 -35 11 2 16
-3 14 -14 -4 -22 45 -19 83 6 29 19 33 70 4 61 -33 -11 -31 17 2 47 33 29 26
33 -22 14 -18 -8 -26 49 -8 59 5 4 9 -4 9 -17 1 -22 1 -22 15 -4 35 47 -4 65
-45 21 -19 -20 -21 -27 -11 -39 7 -8 10 -20 6 -26 -10 -17 -23 -11 -28 13 -3
18 -7 14 -27 -27 -21 -46 -24 -48 -36 -31 -18 25 -18 44 2 52 20 7 38 53 26
65 -10 10 -26 -7 -27 -27 0 -17 -20 -20 -23 -3 -2 8 8 25 21 38 15 14 22 31
19 42 -7 28 -18 22 -35 -19 -13 -33 -16 -35 -22 -18 -4 11 -13 33 -22 48 -10
20 -12 32 -5 39 14 14 4 38 -15 38 -10 0 -13 -9 -11 -27z m56 -195 c18 -18 15
-38 -5 -38 -18 1 -63 32 -63 44 0 11 56 6 68 -6z m-88 -19 c0 -19 -23 -20 -42
-2 -19 20 -19 20 11 15 17 -2 31 -8 31 -13z m69 -39 c9 0 22 -5 29 -12 12 -12
17 -48 6 -48 -10 0 -84 84 -83 95 0 5 7 0 16 -12 8 -13 23 -23 32 -23z m193
-4 c24 7 13 -23 -13 -37 -21 -11 -43 -3 -34 11 3 5 1 19 -4 33 -13 35 0 43 18
12 11 -17 21 -23 33 -19z m-234 -11 c29 -15 51 -50 39 -62 -10 -10 -27 8 -27
28 0 12 -5 17 -10 14 -12 -7 -40 12 -40 26 0 12 2 12 38 -6z m-38 -110 c0 -18
-12 -19 -28 -3 -21 21 -15 40 8 28 11 -6 20 -17 20 -25z m190 15 c0 -6 -7 -25
-16 -42 l-16 -31 26 7 c30 8 35 -8 7 -24 -40 -21 -51 -13 -51 35 0 31 5 47 18
54 22 13 32 14 32 1z m65 -41 c-8 -12 -45 -12 -45 0 0 10 30 20 43 14 4 -3 5
-9 2 -14z m-225 -26 c0 -25 -1 -26 -16 -11 -9 9 -13 21 -10 27 13 20 26 11 26
-16z m30 12 c0 -8 14 -30 31 -50 28 -32 31 -39 25 -80 -8 -52 -21 -64 -37 -34
-8 17 -8 23 1 29 10 6 8 18 -8 51 -23 50 -33 99 -21 99 5 0 9 -7 9 -15z m0
-101 c0 -31 -48 -34 -75 -4 -17 19 -17 20 0 20 10 0 27 -7 37 -17 17 -15 18
-15 18 11 0 16 4 25 10 21 6 -3 10 -17 10 -31z m155 -61 c4 -19 1 -32 -13 -46
-20 -19 -20 -19 -27 4 -5 14 -3 25 4 27 6 2 11 12 11 23 0 28 17 23 25 -8z"/>
<path d="M10852 1298 c-16 -16 -15 -43 1 -57 16 -13 37 4 37 30 0 25 -24 41
-38 27z"/>
<path d="M21246 1302 c-6 -10 20 -82 30 -82 7 0 -7 73 -16 83 -4 5 -10 4 -14
-1z"/>
<path d="M2716 1284 c-3 -8 -1 -24 5 -36 10 -18 12 -19 29 -3 22 19 15 55 -10
55 -10 0 -21 -7 -24 -16z"/>
<path d="M8222 1287 c-7 -8 -8 -24 -3 -43 l8 -29 12 28 c19 49 9 76 -17 44z"/>
<path d="M19770 1270 c0 -23 5 -30 19 -30 25 0 34 14 26 40 -11 33 -45 26 -45
-10z"/>
<path d="M7409 1277 c-142 -40 -209 -156 -156 -271 l26 -56 -20 -34 c-25 -42
-17 -48 55 -36 55 9 90 3 143 -22 16 -8 30 -7 55 4 18 9 44 19 58 23 69 20
130 88 144 164 26 139 -150 271 -305 228z m142 -52 c224 -79 95 -375 -131
-301 -37 12 -56 14 -70 6 -32 -17 -42 -12 -35 19 4 20 0 39 -14 62 -80 131 85
272 250 214z"/>
<path d="M7370 1120 c0 -6 43 -10 110 -10 61 0 110 4 110 8 0 5 -49 10 -110
10 -69 2 -110 -2 -110 -8z"/>
<path d="M7365 1050 c-11 -18 22 -22 122 -17 118 6 111 5 93 17 -20 13 -207
13 -215 0z"/>
<path d="M9080 1277 c-50 -25 -59 -99 -15 -133 32 -24 0 -32 -71 -16 l-72 15
-67 -57 c-36 -31 -69 -56 -74 -56 -12 0 -41 92 -41 131 0 20 -6 39 -12 42 -20
7 -15 -101 6 -140 9 -18 20 -33 24 -33 4 0 23 -34 42 -75 19 -41 38 -75 43
-75 14 0 7 31 -19 82 -14 28 -22 54 -17 58 45 38 104 82 107 79 2 -2 18 -52
35 -111 l31 -107 -100 -122 c-55 -67 -100 -126 -100 -131 0 -4 18 -8 39 -8 52
0 57 -11 21 -45 -38 -36 -38 -30 15 -109 53 -80 54 -86 15 -108 -17 -10 -33
-24 -36 -33 -12 -31 7 -28 43 8 20 20 40 37 45 37 20 0 5 41 -37 101 l-45 64
38 37 37 36 69 -11 c66 -12 70 -14 96 -56 26 -41 27 -45 14 -89 -8 -25 -14
-55 -14 -67 0 -25 68 -95 93 -95 26 0 20 12 -23 44 -45 33 -50 56 -26 123 13
38 13 43 -11 82 l-25 43 46 -7 c25 -4 46 -5 46 -1 0 3 -32 70 -72 149 l-71
144 77 74 c96 91 92 90 131 44 l31 -38 59 47 c94 77 92 77 177 12 l73 -57 30
35 c17 20 33 36 37 36 5 0 75 -58 176 -145 2 -2 -20 -49 -49 -106 -29 -57 -63
-126 -76 -153 l-23 -49 45 6 c52 8 53 6 20 -37 l-25 -33 21 -56 21 -55 -27
-36 c-15 -19 -35 -38 -46 -41 -23 -8 -16 -25 11 -25 10 0 33 21 55 51 37 51
37 52 21 88 -23 55 -23 66 4 110 21 34 33 42 73 50 75 17 111 14 134 -11 35
-40 35 -46 -7 -108 -22 -33 -43 -66 -46 -73 -4 -11 69 -97 82 -97 15 0 -1 36
-27 59 -35 32 -34 36 27 122 41 56 41 59 8 92 -31 32 -24 47 22 47 19 0 34 4
34 8 0 5 -43 60 -95 123 -52 63 -95 120 -95 128 0 16 50 213 56 220 7 7 114
-81 114 -94 0 -7 -13 -38 -29 -69 -18 -33 -26 -58 -20 -62 13 -8 11 -11 49 66
18 36 50 84 71 107 36 39 37 43 28 78 -6 19 -9 43 -7 53 1 9 -1 23 -6 30 -12
20 -38 -5 -27 -27 25 -48 22 -89 -7 -122 l-29 -32 -71 57 -72 58 -71 -16 c-83
-19 -97 -14 -69 21 44 56 13 133 -53 133 -95 0 -102 -138 -8 -152 48 -6 34
-27 -30 -45 -53 -15 -67 -24 -92 -60 l-30 -41 -72 54 c-39 30 -78 54 -85 54
-15 0 -70 -39 -117 -83 -18 -17 -34 -29 -35 -26 -2 2 -13 18 -26 36 -12 18
-22 36 -22 40 0 5 -31 17 -70 27 -71 18 -98 46 -45 46 36 0 75 42 75 80 0 28
-29 70 -49 70 -5 0 -15 2 -23 5 -7 3 -24 -1 -38 -8z"/>
<path d="M16467 1278 c-2 -7 0 -24 5 -38 9 -24 10 -24 23 -6 10 13 11 24 4 37
-11 22 -25 24 -32 7z"/>
<path d="M18601 1262 c-6 -11 -6 -24 0 -34 5 -9 18 -44 28 -78 l20 -62 -27
-25 c-22 -21 -28 -22 -30 -9 -4 18 -17 19 -82 6 -57 -11 -69 0 -36 33 65 65
-3 164 -84 122 -58 -30 -51 -107 13 -138 46 -23 41 -33 -20 -42 -27 -3 -59
-13 -72 -22 -13 -8 -26 -11 -30 -6 -3 4 -17 20 -30 35 -25 28 -21 77 12 145
13 28 -5 73 -28 73 -17 0 -20 -32 -4 -61 13 -26 -19 -120 -33 -95 -8 15 -12
66 -8 119 3 32 -4 42 -20 32 -12 -7 -9 -74 6 -161 4 -24 -1 -38 -21 -62 -28
-33 -48 -43 -39 -18 4 10 -8 16 -48 21 -96 12 -111 23 -59 45 63 26 62 115 0
141 -81 33 -142 -76 -73 -130 49 -38 21 -46 -84 -25 -38 8 -35 -18 17 -145 36
-86 48 -128 42 -139 -11 -21 -81 -233 -81 -245 0 -5 16 -7 36 -5 33 3 39 -1
59 -33 l23 -35 -44 -73 c-24 -40 -44 -77 -44 -81 0 -9 36 -20 65 -20 19 0 18
2 -4 19 l-24 18 37 59 c41 68 44 85 16 124 l-20 28 23 6 c54 14 93 7 122 -24
l30 -31 -23 -62 c-12 -34 -22 -69 -22 -77 1 -23 47 -52 78 -48 26 3 26 4 -15
26 l-42 22 26 69 c24 66 24 70 8 95 -10 14 -21 26 -26 26 -5 0 -9 5 -9 10 0 6
8 10 18 10 50 1 45 17 -42 126 -47 60 -84 114 -82 120 2 6 30 47 62 92 45 65
62 82 82 82 16 0 36 13 57 37 l31 37 36 -39 c22 -25 45 -39 60 -40 18 0 44
-22 96 -83 l72 -83 -21 -42 c-12 -23 -41 -76 -65 -118 -52 -91 -52 -89 -13
-89 l31 0 -27 -36 -27 -36 30 -66 c35 -74 35 -76 -16 -99 l-37 -17 29 -4 c22
-3 36 3 57 25 l29 28 -30 64 -31 64 29 36 c26 32 35 36 81 39 56 3 59 0 35
-52 -16 -33 -16 -36 9 -78 14 -25 33 -50 41 -58 20 -16 20 -34 1 -50 -25 -20
-17 -30 15 -18 45 15 45 23 -4 94 -53 75 -52 72 -26 124 18 35 25 40 55 40 41
0 43 -7 -33 149 l-55 115 22 85 c13 49 29 90 38 96 9 6 32 24 52 41 l35 31
-18 61 c-11 34 -16 71 -12 85 12 49 -21 79 -43 39z"/>
<path d="M19050 1261 c0 -11 5 -23 10 -26 6 -4 10 5 10 19 0 14 -4 26 -10 26
-5 0 -10 -9 -10 -19z"/>
<path d="M21290 1250 c0 -16 5 -30 10 -30 6 0 10 14 10 30 0 17 -4 30 -10 30
-5 0 -10 -13 -10 -30z"/>
<path d="M2635 1261 c-3 -5 -1 -12 5 -16 12 -7 30 2 30 16 0 12 -27 12 -35 0z"/>
<path d="M2815 1260 c-3 -6 1 -13 10 -16 19 -8 30 0 20 15 -8 14 -22 14 -30 1z"/>
<path d="M6610 1258 c0 -6 7 -19 15 -28 13 -15 12 -24 -9 -88 l-24 -71 51 -32
c29 -18 61 -38 72 -44 11 -7 42 -55 68 -107 l49 -94 -65 -149 -64 -150 43 -3
c41 -3 44 -5 44 -32 0 -35 -45 -140 -59 -140 -6 0 -11 -7 -11 -15 0 -11 11
-15 43 -15 39 1 40 2 23 15 -19 14 -18 16 8 75 18 41 26 70 22 86 -7 25 -6 25
51 22 l58 -3 7 -62 c4 -34 11 -71 17 -82 6 -11 8 -27 5 -35 -5 -13 2 -16 35
-16 45 0 55 16 17 26 -28 7 -32 14 -41 80 -3 27 -8 59 -11 72 -4 20 -1 22 36
22 22 0 40 3 40 8 0 4 -30 72 -66 152 l-66 145 53 107 c29 60 57 108 61 108 4
0 23 -14 42 -30 l35 -31 40 55 c23 30 48 59 57 64 13 7 13 13 3 35 l-12 26
-18 -24 c-11 -13 -19 -29 -19 -37 0 -8 -13 -29 -29 -48 l-29 -35 -26 24 c-14
14 -26 30 -26 37 0 9 -22 14 -77 16 -82 3 -103 17 -55 37 57 24 67 87 22 133
-26 25 -36 29 -62 24 -83 -17 -101 -116 -28 -153 48 -24 30 -38 -53 -41 -66
-2 -78 -5 -73 -18 7 -17 5 -17 -41 11 -39 24 -39 25 -13 107 24 77 27 116 6
99 -10 -8 -16 -9 -21 -1 -8 14 -25 13 -25 -2z"/>
<path d="M19870 1255 c0 -8 7 -15 15 -15 8 0 15 7 15 15 0 8 -7 15 -15 15 -8
0 -15 -7 -15 -15z"/>
<path d="M20402 1263 c2 -5 10 -20 17 -35 12 -23 11 -34 -8 -90 -20 -57 -20
-64 -5 -73 122 -76 136 -89 184 -180 l48 -90 -64 -145 c-35 -79 -64 -148 -64
-152 0 -4 18 -8 40 -8 39 0 40 -1 40 -35 0 -48 -28 -116 -59 -142 l-26 -22 48
-1 c43 0 64 13 36 22 -8 3 -5 22 10 61 11 32 21 71 21 87 0 30 1 30 55 30 l55
0 0 -40 c0 -22 9 -62 19 -90 11 -27 15 -50 10 -50 -5 0 -9 -4 -9 -10 0 -5 18
-10 40 -10 22 0 40 5 40 10 0 6 -7 10 -15 10 -19 0 -54 77 -62 137 l-6 43 42
0 c22 0 41 4 41 9 0 6 -29 75 -64 155 l-65 145 51 93 c48 88 54 95 119 133 76
44 76 46 54 131 -13 50 -13 59 0 77 22 31 19 37 -15 24 -36 -13 -36 -13 -10
-102 11 -38 20 -70 20 -71 0 -4 -80 -54 -86 -54 -3 0 -4 7 0 15 4 13 -8 15
-74 15 -85 0 -106 15 -57 41 67 36 59 146 -10 150 -99 7 -145 -104 -62 -147
56 -28 37 -44 -52 -44 -65 0 -80 -3 -76 -14 4 -9 -11 -5 -39 11 -34 19 -43 29
-38 42 24 56 37 140 25 155 -13 16 -56 23 -49 9z"/>
<path d="M847 1254 c-3 -4 0 -16 8 -28 10 -13 15 -45 15 -92 l0 -72 41 -16
c32 -13 39 -20 34 -35 -8 -27 -25 -132 -25 -158 0 -16 4 -21 15 -17 9 4 15 19
15 37 0 17 3 27 8 23 7 -8 9 -19 11 -95 1 -35 4 -42 17 -37 9 4 22 1 30 -5 14
-11 54 -4 54 10 0 5 -7 14 -15 21 -24 20 -17 30 18 26 17 -3 33 -5 33 -5 1 -1
-7 -44 -16 -97 l-18 -96 39 6 c32 5 41 3 45 -11 3 -10 11 -28 17 -41 8 -18 8
-28 -3 -45 -8 -12 -22 -37 -32 -56 -9 -18 -24 -41 -33 -51 -26 -29 -2 -69 26
-44 13 12 16 21 9 29 -8 9 -2 25 19 57 45 67 54 96 38 122 -31 49 -29 54 26
72 51 16 53 16 90 -6 44 -26 44 -26 12 -107 -24 -58 -26 -83 -7 -83 4 0 8 9 9
21 1 11 15 50 32 85 l30 65 -32 19 c-18 11 -35 20 -39 20 -20 0 -5 18 27 33
l36 17 -49 42 c-26 24 -74 61 -105 83 -38 27 -55 45 -51 55 3 8 16 55 29 104
14 49 26 90 28 93 3 2 24 -11 48 -30 41 -31 44 -37 41 -75 -3 -55 3 -53 32 11
12 28 39 78 59 109 36 55 51 128 27 128 -5 0 -10 -14 -10 -31 0 -19 -15 -54
-42 -95 l-42 -64 -26 17 c-14 9 -41 27 -62 40 -34 23 -39 24 -97 12 -70 -13
-84 -8 -53 21 28 26 29 80 4 103 -43 39 -122 7 -122 -48 0 -31 41 -75 70 -75
27 0 26 -17 -2 -26 -13 -3 -42 -15 -65 -26 -38 -18 -43 -18 -72 -3 -30 15 -31
18 -31 83 0 97 -15 133 -43 106z m205 -301 c43 -43 68 -76 68 -90 0 -34 -19
-38 -43 -9 -26 30 -44 33 -50 9 -3 -10 -5 3 -6 29 -1 38 -4 46 -16 42 -8 -4
-15 -12 -15 -20 0 -19 -16 -18 -24 2 -11 29 -7 104 6 104 7 0 43 -30 80 -67z"/>
<path d="M11000 1245 c0 -8 7 -15 15 -15 8 0 15 7 15 15 0 8 -7 15 -15 15 -8
0 -15 -7 -15 -15z"/>
<path d="M18687 1253 c-12 -11 -8 -50 7 -62 12 -10 11 -21 -2 -72 l-15 -60 48
-49 c39 -39 52 -47 62 -38 15 12 173 -133 173 -159 0 -13 -34 -73 -99 -173
l-42 -65 30 -3 c38 -4 39 -11 6 -42 -31 -29 -31 -31 2 -109 l27 -64 -23 -18
c-13 -11 -29 -19 -37 -19 -8 0 -14 -4 -14 -10 0 -18 45 -10 74 14 l29 24 -28
70 -27 70 28 36 c27 33 33 36 83 36 58 0 58 2 30 -67 -13 -31 -11 -35 30 -93
l42 -61 -23 -19 c-32 -25 -18 -34 26 -16 l37 15 -51 76 -51 76 28 42 c22 33
36 43 61 45 39 4 40 0 -30 158 l-50 112 27 116 c14 64 28 123 32 132 5 12 1
15 -13 11 -114 -32 -150 -31 -121 1 66 73 -21 173 -101 116 -47 -33 -11 -134
48 -134 39 0 15 -23 -41 -39 -30 -8 -55 -18 -57 -23 -7 -16 -25 -7 -58 27 -29
32 -32 38 -23 67 24 85 8 184 -24 151z"/>
<path d="M2890 1235 c0 -8 7 -15 15 -15 8 0 15 7 15 15 0 8 -7 15 -15 15 -8 0
-15 -7 -15 -15z"/>
<path d="M10687 1243 c-13 -12 -7 -23 13 -23 11 0 20 7 20 15 0 15 -21 21 -33
8z"/>
<path d="M12462 1220 c-8 -17 -27 -37 -43 -45 -39 -21 -49 -44 -49 -113 0 -43
-4 -61 -14 -65 -9 -4 -13 -1 -10 6 7 20 -36 42 -51 25 -17 -17 -2 -58 21 -58
23 0 -38 -74 -88 -107 l-38 -26 -153 8 c-248 13 -280 12 -312 -9 -23 -15 -31
-16 -51 -5 -21 11 -27 10 -49 -11 -37 -34 -34 -64 5 -55 30 7 30 6 30 -36 0
-23 5 -59 11 -80 10 -33 9 -45 -11 -91 -39 -92 -25 -291 19 -263 7 4 9 24 6
53 -8 63 7 134 36 171 30 38 39 38 39 4 0 -38 58 -209 76 -223 11 -10 17 -10
28 0 13 10 12 17 -5 51 -25 47 -34 103 -25 163 l7 44 117 -5 c64 -3 118 -6
119 -7 1 -1 4 -54 6 -120 5 -118 13 -144 40 -133 11 4 13 20 10 74 -5 68 22
188 41 188 5 0 29 -56 53 -125 49 -138 55 -149 77 -131 14 12 14 16 0 42 -8
16 -21 75 -30 132 -8 56 -16 107 -19 114 -2 7 11 36 28 66 18 30 44 85 57 124
l24 70 26 -15 c53 -31 74 7 45 81 -6 13 -2 17 19 17 34 0 35 27 1 36 -14 3
-25 8 -25 11 0 12 58 49 107 69 66 27 79 37 92 74 15 45 -5 45 -23 0 -9 -22
-23 -40 -31 -40 -13 0 -14 4 -5 20 6 11 9 24 6 29 -3 5 -1 23 5 40 6 18 9 35
5 38 -9 10 -36 -64 -30 -82 9 -23 -23 -65 -63 -81 -19 -8 -46 -27 -58 -40 -32
-35 -48 -23 -40 28 5 27 3 43 -4 48 -20 12 6 59 45 82 32 19 54 51 54 79 0 19
-16 8 -28 -21z"/>
<path d="M16436 1239 c3 -6 1 -14 -5 -18 -7 -5 -2 -16 16 -33 l28 -27 35 29
c35 28 37 50 3 34 -32 -14 -52 -12 -58 7 -4 11 -11 19 -16 19 -6 0 -7 -5 -3
-11z"/>
<path d="M19607 1244 c-9 -10 2 -24 19 -24 8 0 14 7 14 15 0 15 -21 21 -33 9z"/>
<path d="M21220 1242 c0 -5 11 -19 25 -32 31 -29 32 -43 3 -35 -21 6 -21 4 5
-19 55 -51 22 -64 -39 -15 -38 30 -38 30 -46 9 -4 -12 -5 -26 -2 -32 4 -7 -5
-8 -25 -3 -47 10 -38 -10 14 -29 25 -10 48 -22 52 -28 4 -8 0 -9 -11 -5 -10 4
-29 10 -42 13 -32 8 -32 -14 0 -26 13 -5 29 -17 35 -27 9 -17 11 -17 26 4 17
24 51 19 87 -14 15 -13 17 -13 27 4 29 50 39 57 56 39 13 -13 14 -16 2 -16 -7
0 -20 -12 -28 -27 -22 -46 -21 -49 5 -18 32 37 45 26 16 -14 -25 -36 -36 -39
-45 -11 -7 21 -25 28 -25 10 0 -19 -15 -10 -35 20 -11 16 -23 30 -28 30 -12 0
23 -60 39 -67 18 -7 18 -23 0 -23 -14 0 -49 37 -60 63 -3 9 -7 8 -15 -3 -8
-12 -12 -12 -29 3 -10 9 -24 17 -30 17 -22 0 -12 -19 15 -32 31 -15 44 -48 19
-48 -22 0 -21 -3 14 -40 34 -36 40 -64 13 -58 -10 2 -17 9 -16 15 3 14 -65 89
-72 81 -4 -3 9 -23 27 -44 25 -28 28 -36 13 -30 -71 29 -78 5 -7 -26 26 -11
42 -22 35 -25 -7 -2 -21 0 -32 6 -24 13 -31 14 -31 3 0 -7 20 -19 82 -50 7 -4
23 38 19 52 -1 5 4 13 11 17 10 7 11 12 1 29 -16 24 -16 30 -2 30 5 0 16 -15
24 -33 8 -19 21 -39 29 -47 25 -20 18 -136 -8 -127 -6 2 -11 15 -12 28 -1 53
-34 100 -34 49 0 -24 -41 -28 -60 -5 -7 8 -17 15 -22 15 -17 0 13 -30 46 -47
21 -11 31 -12 34 -4 4 13 22 5 22 -10 0 -6 -4 -7 -10 -4 -22 14 -8 -16 15 -31
30 -20 31 -31 4 -145 -22 -91 -31 -104 -49 -70 -14 27 -13 41 4 35 21 -8 27
24 11 62 -17 41 -28 44 -24 6 5 -46 -23 -72 -36 -32 -3 11 1 30 10 44 18 27
17 77 -2 83 -7 3 -9 -3 -6 -16 3 -13 1 -21 -7 -21 -8 0 -10 -9 -6 -25 8 -33
-11 -33 -24 -1 -6 18 -5 34 7 56 10 21 12 35 5 42 -6 6 -12 -3 -16 -27 -10
-52 -24 -34 -18 25 3 33 1 50 -7 50 -6 0 -11 -16 -11 -35 0 -19 -4 -35 -9 -35
-16 0 -21 29 -9 54 12 27 5 56 -13 56 -8 0 -9 -11 -5 -31 4 -22 2 -29 -6 -27
-7 3 -15 19 -19 37 -7 34 -24 59 -35 49 -3 -4 0 -16 6 -28 10 -18 9 -24 -1
-31 -14 -8 13 -38 34 -39 4 0 7 -5 7 -10 0 -6 -11 -8 -27 -4 -36 9 -21 -8 20
-22 43 -15 48 -36 6 -27 -22 4 -30 3 -25 -5 4 -6 22 -14 41 -18 55 -10 71 -39
17 -29 -26 4 -42 3 -42 -3 0 -9 48 -25 60 -21 3 2 15 -3 28 -10 35 -19 26 -32
-18 -25 -26 4 -40 3 -40 -4 0 -6 17 -14 38 -17 62 -11 70 -17 35 -28 -18 -5
-33 -13 -33 -16 0 -11 70 -45 77 -37 4 4 -3 9 -15 13 -27 7 -29 23 -4 23 10 0
29 -14 42 -32 23 -31 21 -69 -7 -145 -3 -7 1 -13 9 -13 10 0 22 25 36 72 17
58 28 79 56 100 18 15 39 42 45 60 10 32 10 32 -7 12 -9 -11 -24 -31 -33 -45
-9 -13 -20 -21 -24 -18 -10 10 5 78 21 92 44 39 64 48 64 27 0 -19 67 -11 91
11 l24 21 -25 -6 c-14 -4 -35 -9 -47 -12 -14 -4 -23 -2 -23 5 0 15 34 31 67
31 34 0 58 14 49 28 -5 8 -15 8 -32 2 -36 -14 -49 -13 -35 4 6 7 29 16 51 20
26 4 40 12 40 21 0 11 -5 12 -26 5 -14 -6 -30 -10 -37 -10 -19 0 11 24 45 36
41 13 52 39 14 32 -36 -7 -33 8 4 21 31 10 35 18 24 45 -9 23 -21 19 -28 -9
-8 -33 -26 -32 -26 1 0 14 -4 23 -10 19 -5 -3 -10 -24 -10 -46 0 -24 -4 -38
-10 -34 -5 3 -10 15 -10 26 0 10 -5 19 -11 19 -12 0 -8 -40 6 -72 4 -11 3 -18
-4 -18 -7 0 -18 15 -26 33 l-14 32 -1 -28 c0 -15 6 -36 12 -47 9 -14 10 -22 1
-31 -8 -8 -13 -2 -21 20 -13 37 -18 38 -43 9 -21 -27 -24 -49 -7 -66 10 -10 7
-17 -10 -34 -31 -32 -34 -21 -20 82 12 88 15 95 42 109 43 23 126 101 126 119
0 11 -8 13 -35 9 -38 -6 -108 -54 -102 -70 6 -18 27 -20 27 -2 0 17 21 16 27
-1 3 -10 -38 -34 -57 -34 -19 0 -11 86 9 104 10 9 22 16 27 15 28 -5 49 2 34
11 -17 10 -17 10 34 33 21 10 36 21 32 24 -3 4 -17 1 -30 -6 -13 -8 -30 -11
-38 -9 -7 3 5 14 30 27 23 12 40 26 37 31 -4 6 -15 4 -28 -5 -27 -19 -51 -20
-44 -1 3 8 -3 22 -14 32 -11 10 -18 26 -16 36 10 37 -12 16 -25 -24 -15 -49
-35 -60 -43 -25 -5 18 0 31 19 50 14 14 26 33 26 42 0 22 -14 18 -25 -7 -16
-36 -35 -34 -35 4 0 25 -8 42 -33 66 -33 32 -47 39 -47 24z m-1 -126 c9 -10 8
-16 -4 -26 -8 -7 -15 -11 -16 -9 -10 52 -4 64 20 35z m59 -32 c31 -22 31 -59
0 -43 -26 13 -38 28 -38 47 0 16 11 15 38 -4z m-20 -156 c7 -7 20 -13 29 -13
20 0 31 -32 23 -70 l-6 -30 -16 36 c-18 40 -33 54 -62 54 -40 0 -30 25 15 34
3 0 11 -5 17 -11z m184 -50 l-22 -22 0 21 c0 12 7 23 18 25 27 6 28 -1 4 -24z
m-52 -205 c0 -42 -16 -61 -23 -27 -3 15 -3 34 0 41 9 23 23 14 23 -14z"/>
<path d="M2950 1215 c-10 -12 -9 -16 5 -21 23 -9 40 10 22 25 -11 9 -17 8 -27
-4z"/>
<path d="M21327 1223 c-2 -5 -7 -21 -11 -38 l-8 -30 21 27 c12 14 21 31 21 37
0 12 -17 15 -23 4z"/>
<path d="M10511 1206 c-14 -16 51 -92 70 -81 17 11 9 31 -24 63 -29 28 -36 31
-46 18z"/>
<path d="M10623 1213 c-22 -8 -14 -25 10 -21 12 2 20 6 18 11 -6 12 -15 16
-28 10z"/>
<path d="M20000 1205 c0 -10 7 -15 17 -13 22 4 23 22 1 26 -11 2 -18 -3 -18
-13z"/>
<path d="M2356 1202 c-3 -5 12 -25 33 -46 34 -33 39 -35 51 -21 11 14 8 20
-21 45 -35 30 -54 36 -63 22z"/>
<path d="M3047 1182 c-29 -30 -35 -52 -14 -52 18 0 70 58 62 70 -10 16 -19 12
-48 -18z"/>
<path d="M3656 1189 c-39 -31 -37 -91 5 -130 35 -33 32 -53 -7 -39 -14 6 -39
10 -55 10 -28 0 -29 -1 -29 -52 0 -29 7 -92 14 -139 14 -83 14 -88 -8 -150
-41 -113 -61 -237 -42 -258 11 -12 16 -37 16 -80 0 -39 4 -60 10 -56 6 3 10
31 10 61 l0 55 83 -8 c45 -4 115 -8 156 -8 l74 0 13 40 c7 22 15 53 19 69 8
39 20 25 53 -65 27 -71 29 -74 60 -74 37 0 48 18 14 23 -14 2 -29 17 -42 42
-28 56 -26 57 28 12 49 -41 58 -45 105 -43 36 1 35 21 -2 21 -30 0 -60 35
-160 182 l-32 48 -71 -36 -71 -36 -59 59 c-33 32 -68 70 -79 84 l-18 26 73 79
73 78 32 -37 c43 -48 54 -47 86 11 15 26 37 57 48 69 19 22 18 53 -3 53 -6 0
-13 -8 -17 -17 -9 -25 -67 -122 -73 -123 -16 0 -47 68 -38 83 10 18 -7 28 -86
54 -40 12 -43 29 -9 38 76 18 99 101 42 149 -37 31 -77 33 -113 5z"/>
<path d="M11178 1178 c-26 -29 -29 -48 -7 -48 17 0 71 59 64 70 -10 17 -29 10
-57 -22z"/>
<path d="M19433 1199 c-12 -12 39 -69 63 -69 23 0 16 24 -14 53 -32 30 -34 31
-49 16z"/>
<path d="M20098 1181 c-54 -52 -23 -72 32 -21 30 28 33 51 7 49 -7 -1 -24 -13
-39 -28z"/>
<path d="M4856 1178 c-53 -47 -30 -140 37 -150 41 -6 23 -31 -36 -51 -51 -17
-58 -22 -53 -41 6 -26 -41 -90 -51 -68 -3 7 -20 33 -39 58 -19 24 -34 53 -34
64 0 23 -13 26 -29 6 -9 -11 0 -30 45 -92 30 -44 59 -80 64 -82 4 -2 22 14 39
35 l32 38 75 -78 75 -79 -62 -71 c-34 -40 -68 -78 -75 -86 -11 -12 -24 -7 -84
28 -84 50 -73 56 -171 -84 -72 -102 -74 -105 -112 -105 -23 0 -36 -4 -32 -10
3 -5 26 -10 51 -10 40 0 51 5 95 47 50 46 50 47 44 18 -13 -52 -33 -75 -66
-75 -20 0 -29 -4 -26 -12 2 -8 20 -13 43 -13 l39 0 27 80 c14 44 30 80 35 80
4 0 12 -31 17 -69 l10 -69 147 6 148 7 6 -55 c4 -30 11 -55 16 -55 10 0 11 8
9 72 -1 42 1 49 24 59 18 8 26 20 26 36 0 27 -32 160 -56 236 -15 44 -15 57 0
145 8 53 16 115 18 137 l3 40 -57 -3 c-44 -2 -58 1 -58 12 0 8 7 16 14 19 8 3
22 20 32 38 40 79 -63 155 -130 97z"/>
<path d="M2647 1180 c-258 -65 -352 -393 -163 -568 182 -168 443 -130 556 80
44 81 50 210 12 291 -67 147 -250 236 -405 197z m229 -53 c255 -130 223 -496
-50 -579 -261 -79 -502 186 -387 427 34 74 114 149 180 170 72 23 194 15 257
-18z"/>
<path d="M2657 1035 c-128 -45 -173 -211 -84 -312 106 -120 302 -83 352 67 53
158 -106 303 -268 245z m154 -40 c132 -69 107 -265 -39 -304 -59 -16 -116 1
-163 48 -133 132 34 342 202 256z"/>
<path d="M4046 1168 c-73 -112 -65 -311 15 -384 32 -29 32 -8 0 58 -52 106
-51 217 4 299 22 34 23 49 4 49 -5 0 -15 -10 -23 -22z"/>
<path d="M4528 1184 c-3 -3 8 -33 26 -66 44 -87 45 -186 1 -273 -16 -33 -31
-63 -33 -67 -2 -5 4 -8 13 -8 22 0 72 109 81 176 12 99 -53 274 -88 238z"/>
<path d="M5856 1178 c4 -7 16 -23 26 -35 l20 -21 -98 -99 c-97 -99 -284 -316
-284 -330 0 -15 53 -34 64 -23 23 23 27 0 26 -177 l-2 -188 121 -3 121 -3 0
118 c0 128 3 136 40 149 83 27 104 0 110 -144 l5 -117 118 -3 117 -3 0 191 c0
120 4 190 10 190 6 0 10 -4 10 -10 0 -5 7 -10 15 -10 8 0 15 5 15 10 0 6 7 10
15 10 8 0 15 6 15 13 0 21 -145 186 -303 345 -136 137 -182 176 -161 140z m36
-155 c-5 -10 -15 -45 -21 -78 -24 -124 -55 -245 -63 -245 -12 0 -10 23 8 71 8
24 24 89 36 144 20 98 35 142 45 132 2 -3 0 -14 -5 -24z m125 -29 c-4 -4 -14
1 -22 12 -22 29 -18 41 7 17 12 -13 19 -26 15 -29z m71 -62 c20 -31 1 -27 -22
5 -12 16 -14 24 -6 21 7 -2 20 -14 28 -26z m-338 -31 c-22 -32 -30 -38 -30
-22 0 12 41 63 47 57 3 -3 -5 -19 -17 -35z m291 -28 c37 -80 38 -82 62 -116
10 -14 17 -34 15 -44 -4 -15 -118 199 -118 221 0 18 12 -1 41 -61z m-274 -67
c-24 -55 -48 -101 -54 -103 -7 -3 11 46 40 107 63 135 73 132 14 -4z m118 -13
c-5 -70 -10 -93 -21 -93 -17 0 -17 1 -4 71 5 30 12 77 16 104 11 77 17 23 9
-82z m78 -92 c-11 -14 -18 23 -20 107 l-1 97 12 -100 c7 -55 11 -102 9 -104z
m308 24 c5 -11 -24 15 -66 58 -41 44 -80 89 -86 100 -12 27 137 -130 152 -158z
m-229 55 c15 -42 23 -79 18 -84 -7 -7 -44 94 -66 179 l-5 20 13 -20 c7 -11 25
-54 40 -95z m-242 13 c-31 -98 -36 -108 -42 -97 -4 5 7 42 23 83 16 40 29 80
30 89 0 10 3 12 6 5 2 -7 -5 -43 -17 -80z m191 -6 c9 -45 13 -86 9 -91 -9 -9
-15 17 -29 122 -11 85 0 68 20 -31z m-74 -49 c-2 -24 -4 -7 -4 37 0 44 2 63 4
43 2 -21 2 -57 0 -80z m-222 75 c-10 -16 -32 -46 -48 -68 -17 -22 -32 -42 -34
-44 -2 -2 -6 -1 -9 2 -4 4 9 24 29 46 19 22 43 51 52 65 10 14 20 26 22 26 3
0 -3 -12 -12 -27z m-53 -20 c-11 -15 -33 -39 -48 -53 -19 -17 -13 -7 16 32 44
57 70 74 32 21z m499 -36 c34 -65 16 -60 -20 6 -21 38 -28 56 -17 48 10 -8 26
-32 37 -54z m40 0 c11 -21 18 -44 16 -50 -2 -7 -19 17 -37 53 -21 41 -26 60
-16 50 10 -7 26 -31 37 -53z m-481 -6 c-18 -28 -36 -51 -41 -51 -14 0 -11 8
13 43 58 82 77 88 28 8z m-53 -91 c-3 -13 0 -20 9 -20 8 0 14 9 14 21 0 11 4
17 10 14 6 -4 8 -15 5 -26 -4 -11 -2 -19 4 -19 6 0 11 9 11 20 0 11 5 20 10
20 6 0 10 -12 10 -26 0 -30 17 -23 32 14 l11 27 7 -30 7 -30 11 28 c13 30 37
38 27 8 -3 -11 -1 -22 5 -26 6 -3 10 3 10 14 0 25 17 28 23 4 3 -15 6 -14 15
7 10 24 11 24 11 3 1 -28 21 -31 21 -3 0 27 26 25 35 -2 l8 -23 4 23 c5 27 23
29 23 2 0 -11 5 -20 10 -20 6 0 10 7 10 15 0 8 4 15 9 15 5 0 11 -7 15 -15 8
-22 37 -18 43 5 6 24 23 16 23 -11 0 -10 5 -19 10 -19 6 0 10 9 10 20 0 11 5
20 10 20 6 0 10 -9 10 -20 0 -11 5 -20 10 -20 6 0 10 9 10 20 0 11 5 20 10 20
6 0 10 -9 10 -20 0 -11 5 -20 10 -20 6 0 10 11 10 25 0 23 2 24 20 15 19 -10
20 -21 20 -175 l0 -165 -85 0 -85 0 0 123 c0 162 1 162 -122 162 -136 0 -128
10 -128 -150 l0 -135 -85 0 -85 0 0 168 c0 93 3 172 7 175 12 12 15 7 10 -13z"/>
<path d="M8036 1181 c-8 -12 30 -58 40 -49 9 10 -12 58 -25 58 -5 0 -12 -4
-15 -9z"/>
<path d="M10778 1176 c-253 -73 -339 -367 -162 -556 73 -78 138 -105 254 -105
111 0 157 18 239 91 145 131 145 358 0 488 -86 77 -227 112 -331 82z m237 -49
c297 -152 190 -588 -145 -591 -262 -2 -413 300 -254 509 83 110 270 148 399
82z"/>
<path d="M10785 1032 c-182 -86 -146 -355 51 -378 178 -21 296 147 211 299
-45 80 -176 119 -262 79z m175 -42 c101 -51 106 -200 9 -273 -116 -86 -287 15
-265 156 20 124 137 178 256 117z"/>
<path d="M13890 1168 c-49 -25 -90 -89 -90 -140 0 -27 2 -28 50 -28 69 0 71
-28 3 -32 -44 -3 -48 -5 -51 -30 -3 -27 -2 -28 47 -28 70 0 73 -28 4 -32 -46
-3 -48 -4 -48 -33 0 -29 2 -30 48 -33 32 -2 47 -8 47 -17 0 -9 -15 -15 -47
-17 l-48 -3 -3 -40 c-10 -150 181 -224 288 -111 19 21 25 40 28 91 l4 65 -46
0 c-62 0 -66 27 -3 32 39 3 42 5 45 36 3 32 3 32 -42 32 -34 0 -46 4 -46 15 0
11 12 15 45 15 43 0 45 1 45 29 0 28 -2 30 -47 33 -63 4 -62 22 1 26 l48 3 -4
50 c-11 111 -125 169 -228 117z"/>
<path d="M15725 1165 c-52 -51 -13 -135 61 -135 45 0 43 -18 -5 -51 -35 -24
-38 -32 -44 -84 -3 -31 -8 -60 -11 -62 -3 -3 -44 9 -91 26 -69 26 -89 30 -100
21 -28 -23 -18 -41 18 -35 22 4 56 -3 111 -24 44 -17 81 -29 83 -27 2 1 7 24
12 50 11 57 16 63 38 44 10 -8 50 -32 88 -52 39 -21 71 -39 72 -40 6 -5 -86
-201 -93 -200 -5 1 -39 5 -77 9 l-67 7 -14 -34 c-8 -18 -22 -71 -32 -117 -17
-75 -22 -86 -46 -95 -34 -13 -36 -26 -5 -26 34 0 58 22 76 68 22 56 35 56 39
0 3 -44 1 -48 -27 -63 -41 -21 -41 -39 1 -31 17 3 37 11 45 17 16 14 17 89 2
142 -18 65 -5 63 39 -7 48 -77 34 -76 177 -16 169 70 175 74 175 95 0 30 -46
115 -106 194 -47 64 -54 78 -63 143 -26 186 -31 194 -100 158 -43 -22 -60 -10
-35 25 57 77 -53 168 -121 100z"/>
<path d="M19081 1188 c-1 -12 31 -89 35 -85 3 2 -4 24 -15 48 -11 24 -20 41
-20 37z"/>
<path d="M19691 1175 c-269 -76 -339 -442 -113 -597 154 -106 329 -92 458 36
247 247 -5 656 -345 561z m215 -36 c255 -95 271 -451 26 -571 -213 -105 -462
44 -462 278 0 230 216 375 436 293z"/>
<path d="M19715 1035 c-22 -8 -57 -32 -77 -53 -154 -165 41 -408 247 -308 229
113 72 447 -170 361z m140 -34 c151 -70 135 -268 -25 -311 -100 -27 -210 55
-210 156 0 122 126 205 235 155z"/>
<path d="M21110 1176 c0 -16 28 -42 36 -33 8 7 -14 47 -26 47 -6 0 -10 -6 -10
-14z"/>
<path d="M21434 1172 c-26 -21 -41 -82 -20 -82 8 0 16 -6 18 -12 6 -18 58 6
58 27 0 19 -5 19 -34 -1 -28 -18 -36 -10 -29 29 6 33 23 36 23 5 1 -22 2 -21
16 5 24 43 6 60 -32 29z"/>
<path d="M1610 1153 c-34 -44 -14 -96 44 -111 45 -12 38 -31 -18 -52 -26 -11
-56 -26 -66 -35 -27 -24 -93 27 -86 65 11 54 10 93 0 97 -7 2 -14 -21 -19 -64
-7 -66 -6 -68 21 -91 59 -48 73 -55 88 -43 11 10 121 -61 194 -124 2 -2 -24
-57 -57 -123 -71 -139 -70 -132 -31 -132 l31 0 -26 -27 c-31 -34 -31 -37 1
-107 28 -62 24 -79 -21 -90 -31 -8 -33 -26 -2 -26 31 0 67 27 67 50 0 11 -9
43 -20 72 -25 66 -26 61 11 103 28 31 36 35 81 35 36 0 49 -3 45 -12 -3 -7
-12 -29 -21 -49 l-15 -37 44 -63 45 -64 -23 -17 c-22 -17 -22 -18 -1 -18 11 0
29 6 39 14 18 13 17 17 -29 84 l-48 70 23 44 c21 37 29 43 62 46 20 2 37 7 37
12 0 12 -78 148 -115 201 l-32 45 15 105 c8 57 17 106 18 108 2 2 97 -51 111
-63 2 -2 -6 -21 -17 -44 -23 -48 -29 -75 -16 -82 5 -3 19 23 32 56 13 34 36
82 53 105 27 39 29 49 22 85 -4 23 -4 49 1 57 11 20 -11 35 -24 16 -5 -8 -6
-39 -3 -69 4 -41 1 -61 -10 -77 -21 -30 -24 -30 -98 16 l-63 38 -59 -18 c-69
-21 -83 -17 -55 18 43 54 12 123 -54 123 -26 0 -40 -7 -56 -27z"/>
<path d="M16410 1170 c0 -5 4 -10 9 -10 5 0 7 -9 4 -20 -11 -41 47 -64 80 -31
10 10 0 34 -12 26 -5 -2 -19 7 -31 20 -24 25 -50 33 -50 15z m44 -36 c4 -9 4
-19 2 -21 -8 -8 -26 8 -26 23 0 19 16 18 24 -2z"/>
<path d="M16507 1173 c-13 -12 -7 -25 9 -19 12 5 15 2 10 -11 -5 -16 -4 -16 9
1 20 26 -5 53 -28 29z"/>
<path d="M15033 1134 c-28 -29 -28 -89 2 -110 26 -19 18 -37 -12 -29 -16 5
-39 9 -53 9 l-25 1 0 -130 c-1 -125 -2 -133 -34 -210 -46 -109 -72 -212 -57
-223 21 -17 231 -62 285 -62 27 0 32 5 50 55 12 31 21 60 21 65 0 6 5 10 10
10 6 0 10 -17 10 -37 1 -57 24 -144 40 -153 8 -4 24 -4 35 0 19 7 18 9 -7 19
-16 6 -28 16 -28 23 0 7 -3 23 -6 35 -9 34 8 28 34 -12 19 -30 27 -35 62 -35
22 0 40 5 40 10 0 6 -11 10 -25 10 -31 0 -46 22 -85 132 -41 113 -42 114 -120
82 -34 -14 -66 -22 -70 -17 -5 4 -34 44 -65 88 l-57 80 30 25 c16 14 54 46 84
73 67 57 65 57 79 2 15 -58 23 -57 128 4 100 60 109 67 94 82 -9 9 -19 5 -42
-14 -43 -36 -139 -89 -150 -83 -7 5 -23 60 -25 91 -1 6 -25 21 -53 34 -58 27
-70 51 -25 51 17 0 38 10 52 25 72 77 -42 184 -117 109z"/>
<path d="M17147 1154 c-4 -4 5 -20 19 -35 l27 -28 -89 -88 c-92 -91 -284 -310
-284 -325 0 -4 11 -8 25 -8 14 0 25 -5 25 -11 0 -6 9 -8 21 -4 21 7 21 6 18
-171 l-4 -179 125 0 125 0 -3 117 -4 117 31 15 c30 16 77 15 91 -1 7 -7 19
-158 20 -231 0 -22 1 -23 113 -20 l112 3 0 183 c0 167 4 199 19 173 4 -5 19
-3 37 6 27 13 29 17 16 32 -166 198 -427 467 -440 455z m148 -182 c-8 -8 -35
20 -35 37 1 12 5 11 21 -8 11 -13 17 -26 14 -29z m-150 -84 c-40 -90 -52 -109
-41 -65 10 44 70 171 74 159 2 -6 -13 -48 -33 -94z m392 -166 c9 -12 14 -24
12 -26 -6 -5 -219 230 -219 240 1 10 183 -179 207 -214z m-170 65 c25 -54 43
-100 39 -104 -3 -3 -8 -4 -10 -2 -14 17 -87 192 -91 220 -5 32 -5 32 6 9 6
-14 32 -69 56 -123z m-281 62 c-13 -44 -82 -182 -72 -144 6 20 6 20 -9 1 -28
-37 -15 -1 19 52 18 29 41 73 51 98 22 57 30 52 11 -7z m89 -65 c-4 -52 -12
-97 -17 -100 -11 -7 -3 160 9 201 12 39 15 -6 8 -101z m143 24 c41 -117 45
-128 34 -128 -5 0 -14 12 -20 28 -17 46 -52 162 -52 172 0 24 10 4 38 -72z
m-303 5 c-20 -27 -48 -65 -63 -85 -27 -37 -42 -47 -42 -28 0 10 128 160 137
160 3 0 -12 -21 -32 -47z m239 -122 c-11 -26 -22 24 -22 99 l0 65 15 -74 c8
-40 11 -81 7 -90z m25 108 c5 -24 14 -59 20 -77 7 -25 7 -32 -1 -30 -12 4 -37
95 -38 137 0 35 9 21 19 -30z m-69 -41 c0 -60 -3 -79 -11 -71 -10 10 -4 153 7
153 2 0 4 -37 4 -82z m240 -11 c31 -53 37 -72 21 -63 -9 6 -71 111 -71 121 0
16 23 -12 50 -58z m-315 11 c-9 -61 -15 -79 -25 -73 -11 7 12 115 26 115 3 0
3 -19 -1 -42z m-194 15 c-5 -10 -24 -31 -42 -48 -35 -31 -23 -10 20 38 29 31
36 34 22 10z m149 -43 c-7 -22 -17 -40 -22 -40 -12 0 -10 15 9 55 22 45 30 36
13 -15z m-111 -5 c-21 -35 -29 -42 -29 -26 0 9 39 61 45 61 3 0 -5 -16 -16
-35z m44 -85 c-7 -28 13 -25 22 3 l7 22 8 -25 8 -25 7 23 c8 25 25 30 25 7 0
-8 5 -15 10 -15 6 0 10 7 10 15 0 21 20 19 21 -2 1 -17 2 -17 6 0 2 9 11 17
19 17 8 0 15 -8 15 -17 1 -17 2 -17 6 0 5 21 33 23 33 2 0 -8 5 -15 10 -15 6
0 10 8 10 17 0 15 2 14 16 -3 13 -16 15 -16 10 -1 -3 9 -1 17 4 17 6 0 10 -6
10 -12 0 -9 3 -8 10 2 8 13 11 12 24 -5 14 -18 15 -18 16 -2 0 20 20 23 20 3
0 -8 5 -18 11 -22 8 -4 9 0 4 15 -4 12 -2 21 4 21 6 0 11 -9 11 -20 0 -11 7
-20 15 -20 8 0 15 9 15 20 0 11 5 20 10 20 6 0 10 -9 10 -20 0 -11 5 -20 11
-20 6 0 8 9 4 20 -4 11 -2 20 4 20 6 0 11 -6 12 -12 0 -10 2 -10 6 0 16 40 23
-6 23 -153 l0 -165 -73 0 -74 0 -6 127 c-7 150 -9 153 -103 153 -136 0 -138
-2 -137 -168 l0 -113 -81 3 -81 3 -3 148 c-2 128 0 147 13 147 9 0 18 7 21 15
7 18 22 20 20 3 -2 -23 19 -23 22 0 2 12 7 20 12 17 4 -3 6 -14 3 -25z"/>
<path d="M16290 1136 c0 -9 -4 -14 -10 -11 -5 3 -15 3 -20 0 -13 -8 6 -35 25
-35 16 0 27 42 15 54 -7 7 -10 4 -10 -8z"/>
<path d="M16630 1135 c-6 -8 -9 -19 -5 -25 5 -7 12 -5 21 7 11 15 13 16 14 2
0 -15 -30 -49 -43 -49 -4 0 -7 9 -7 19 0 11 -4 22 -9 25 -13 9 -33 -21 -28
-41 4 -14 5 -13 6 5 2 34 20 17 19 -18 -1 -42 -25 -60 -34 -26 -9 36 -19 33
-37 -12 -27 -67 -47 -73 -47 -16 0 38 4 52 20 62 11 7 20 17 20 23 0 8 -6 7
-16 -2 -9 -8 -22 -14 -28 -15 -37 -4 -37 -3 -23 -26 11 -18 12 -59 7 -198 -3
-96 -7 -170 -8 -163 -1 7 -18 29 -39 49 -31 32 -34 38 -20 46 10 5 17 13 17
18 0 13 -30 40 -43 40 -9 0 -9 -2 0 -8 20 -13 20 -47 0 -44 -15 3 -17 -1 -12
-19 5 -14 4 -19 -4 -15 -6 4 -11 0 -11 -8 0 -18 16 -21 26 -5 8 14 58 -34 78
-75 15 -33 9 -128 -14 -205 -11 -40 -5 -55 9 -20 l10 24 0 -27 c1 -16 5 -28 9
-28 5 0 12 47 15 105 10 154 50 223 121 210 25 -5 36 -4 36 4 0 7 -4 9 -10 6
-5 -3 -20 1 -32 10 l-23 17 28 -6 c16 -4 27 -2 27 4 0 7 6 7 20 0 22 -12 60
-5 60 11 0 14 -28 11 -33 -3 -3 -10 -9 -9 -22 4 -16 15 -16 17 4 27 11 6 33 9
49 6 17 -3 36 1 48 10 17 14 16 14 -22 9 -43 -6 -41 -8 -46 46 -1 11 -8 20
-15 20 -8 0 -11 -9 -7 -28 4 -20 0 -33 -14 -45 -19 -17 -20 -17 -26 8 -8 31
-17 31 -43 3 -26 -30 -70 -108 -48 -87 9 8 24 31 33 50 20 40 47 46 47 9 0
-18 -5 -25 -20 -25 -11 0 -24 -10 -30 -22 -6 -11 -25 -35 -43 -51 l-32 -30 0
133 c0 108 3 135 16 146 8 7 22 26 30 42 9 16 18 26 21 23 4 -3 0 -17 -7 -31
-12 -22 -11 -27 6 -46 18 -21 18 -21 0 -18 -10 2 -21 -2 -23 -8 -7 -18 28 -16
56 3 15 11 21 23 18 36 -4 15 -2 18 10 13 9 -3 20 0 25 7 15 25 8 35 -19 31
-27 -4 -27 -4 -8 12 11 9 28 14 37 11 21 -5 34 12 20 26 -6 6 -12 6 -16 -1 -4
-6 -14 -11 -22 -11 -26 0 -15 16 21 30 38 15 51 62 19 74 -21 8 -20 8 -34 -9z
m-53 -155 c-3 -10 0 -21 7 -23 8 -3 8 -8 -1 -18 -9 -8 -13 -9 -13 -2 0 6 -7
13 -15 15 -14 3 -14 5 0 26 20 27 29 28 22 2z"/>
<path d="M4121 1109 c-42 -69 -45 -164 -8 -236 34 -65 60 -56 28 10 -28 58
-28 144 0 199 27 53 10 77 -20 27z"/>
<path d="M4447 1134 c-3 -4 5 -26 19 -51 34 -57 32 -160 -4 -210 -27 -38 -10
-60 19 -24 28 34 42 99 36 163 -7 76 -47 145 -70 122z"/>
<path d="M16310 1102 c0 -10 6 -24 13 -31 12 -14 9 -14 -39 5 -12 5 -15 2 -12
-12 3 -14 11 -19 36 -17 18 1 32 -2 32 -8 0 -5 8 -9 17 -9 13 0 14 -3 5 -12
-9 -9 -18 -9 -37 0 -29 13 -33 5 -7 -14 10 -8 12 -13 5 -14 -18 0 -16 -20 2
-20 8 0 15 5 15 10 0 6 9 10 20 10 15 0 20 -7 20 -26 0 -19 -4 -25 -15 -20
-28 10 -15 -9 22 -32 39 -25 64 -17 62 22 0 18 -2 17 -11 -6 -8 -24 -13 -26
-29 -18 -23 13 -25 30 -4 30 8 0 15 7 15 16 0 8 4 13 10 9 12 -7 -8 52 -28 83
-11 18 -17 20 -29 11 -19 -16 -29 -3 -12 17 11 14 11 18 -6 30 -26 19 -45 18
-45 -4z m94 -78 c3 -9 6 -27 6 -42 0 -25 -1 -25 -15 -6 -16 21 -20 64 -6 64 5
0 12 -7 15 -16z"/>
<path d="M3080 1103 c1 -10 36 -53 44 -53 3 0 6 7 6 15 0 8 -4 15 -10 15 -5 0
-10 7 -10 15 0 8 -7 15 -15 15 -8 0 -15 -3 -15 -7z"/>
<path d="M10490 1095 c0 -8 7 -15 15 -15 8 0 15 7 15 15 0 8 -7 15 -15 15 -8
0 -15 -7 -15 -15z"/>
<path d="M11224 1099 c-7 -12 15 -31 28 -23 9 6 -1 34 -12 34 -5 0 -12 -5 -16
-11z"/>
<path d="M20142 1093 c2 -10 8 -18 13 -18 5 0 11 8 13 18 2 10 -3 17 -13 17
-10 0 -15 -7 -13 -17z"/>
<path d="M13368 1078 c-90 -137 -110 -288 -56 -420 25 -61 67 -128 80 -128 22
0 17 32 -10 73 -85 123 -78 347 15 449 15 17 12 48 -6 48 -5 0 -15 -10 -23
-22z"/>
<path d="M14521 1087 c-8 -10 -4 -23 15 -51 87 -128 86 -327 -4 -453 -19 -26
-20 -32 -7 -43 11 -9 19 -4 40 28 91 137 96 301 15 461 -33 67 -43 76 -59 58z"/>
<path d="M4192 1055 c-16 -35 -15 -99 2 -140 18 -43 42 -48 31 -7 -10 36 -10
121 -1 150 12 32 -17 29 -32 -3z"/>
<path d="M4378 1074 c-4 -3 0 -17 8 -32 18 -35 18 -80 -1 -116 -20 -37 1 -57
24 -24 38 55 10 213 -31 172z"/>
<path d="M8075 1021 c-9 -15 8 -35 24 -30 8 3 7 10 -2 23 -10 14 -16 16 -22 7z"/>
<path d="M13446 978 c-52 -90 -58 -196 -17 -289 27 -62 45 -83 64 -76 14 5 12
13 -15 57 -50 81 -52 182 -5 272 19 37 32 69 29 72 -14 15 -33 2 -56 -36z"/>
<path d="M14425 1010 c-3 -6 8 -39 26 -75 41 -84 39 -184 -5 -260 -21 -36 -25
-50 -16 -58 26 -26 90 115 90 197 0 89 -71 235 -95 196z"/>
<path d="M20197 1013 c-4 -3 -7 -12 -7 -20 0 -15 26 -18 34 -4 7 11 -18 33
-27 24z"/>
<path d="M2294 999 c-8 -14 11 -33 25 -25 16 10 13 36 -3 36 -8 0 -18 -5 -22
-11z"/>
<path d="M3137 1004 c-9 -10 4 -34 19 -34 8 0 14 9 14 20 0 19 -19 27 -33 14z"/>
<path d="M10425 1000 c-8 -13 4 -32 16 -25 12 8 12 35 0 35 -6 0 -13 -4 -16
-10z"/>
<path d="M11274 999 c-8 -14 11 -33 25 -25 6 4 11 14 11 22 0 16 -26 19 -36 3z"/>
<path d="M19350 996 c0 -21 21 -31 30 -15 5 7 6 17 4 21 -9 14 -34 9 -34 -6z"/>
<path d="M17802 975 c-6 -14 -14 -67 -17 -118 l-6 -92 31 -24 c30 -22 32 -23
50 -6 32 29 26 65 -10 65 -33 0 -39 14 -14 28 14 8 15 15 5 43 -6 19 -10 51
-9 72 2 49 -15 66 -30 32z"/>
<path d="M300 942 c0 -21 41 -46 58 -35 30 18 20 38 -20 41 -21 2 -38 -1 -38
-6z"/>
<path d="M13556 928 c-43 -61 -41 -175 3 -230 31 -37 46 -11 21 37 -26 50 -25
110 0 158 28 53 8 82 -24 35z"/>
<path d="M14333 939 c-9 -9 -6 -21 9 -51 24 -45 20 -123 -8 -166 -13 -20 -14
-26 -3 -33 39 -24 79 93 59 173 -14 56 -41 93 -57 77z"/>
<path d="M2270 915 c0 -8 7 -15 15 -15 8 0 15 7 15 15 0 8 -7 15 -15 15 -8 0
-15 -7 -15 -15z"/>
<path d="M19330 915 c0 -8 7 -15 15 -15 8 0 15 7 15 15 0 8 -7 15 -15 15 -8 0
-15 -7 -15 -15z"/>
<path d="M16194 895 c-19 -15 -19 -16 4 -31 26 -19 29 -34 5 -34 -11 0 -14 -3
-7 -10 13 -13 76 -1 68 12 -3 5 3 4 15 -4 24 -15 28 -28 8 -28 -7 0 -22 -7
-33 -16 -18 -15 -17 -15 16 -9 19 3 36 10 38 15 2 5 10 6 18 3 25 -9 15 11
-15 32 -24 16 -29 24 -24 47 4 21 2 28 -10 28 -10 0 -13 -6 -10 -20 4 -14 0
-20 -11 -20 -10 0 -16 9 -16 25 0 28 -17 32 -46 10z"/>
<path d="M16701 887 c2 -12 0 -28 -4 -34 -10 -16 49 -11 65 5 20 20 4 45 -30
48 -30 4 -33 1 -31 -19z"/>
<path d="M19067 874 c-15 -15 -3 -104 14 -104 11 0 11 67 0 93 -3 10 -10 15
-14 11z"/>
<path d="M3162 857 c-18 -21 -4 -27 60 -27 45 0 58 3 58 15 0 11 -11 15 -39
15 -22 0 -46 2 -54 5 -7 3 -19 0 -25 -8z"/>
<path d="M10363 862 c-38 -2 -53 -7 -53 -18 0 -16 125 -21 135 -5 9 16 -27 26
-82 23z"/>
<path d="M11304 855 c-10 -25 6 -30 80 -27 49 3 66 7 66 18 0 10 -13 14 -47
14 -27 0 -58 3 -70 6 -16 4 -25 1 -29 -11z"/>
<path d="M16327 856 c-3 -8 2 -20 11 -28 12 -10 14 -10 8 0 -4 7 -2 19 4 27
10 12 9 15 -3 15 -8 0 -17 -6 -20 -14z"/>
<path d="M20222 857 c-18 -22 -4 -27 70 -27 54 0 68 3 68 15 0 11 -12 15 -49
15 -27 0 -56 2 -64 5 -7 3 -19 0 -25 -8z"/>
<path d="M2162 848 c7 -21 138 -23 138 -3 0 12 -14 15 -71 15 -52 0 -70 -3
-67 -12z"/>
<path d="M19227 854 c-15 -16 9 -24 69 -24 50 0 64 3 64 15 0 15 -119 23 -133
9z"/>
<path d="M13704 835 c-4 -8 -5 -55 -2 -104 6 -134 66 -216 186 -252 l43 -12
-3 -56 -3 -56 -47 -3 c-46 -3 -75 -22 -63 -42 4 -6 61 -10 151 -10 145 0 145
0 142 23 -3 19 -10 22 -55 25 l-53 3 0 60 c0 40 4 59 13 59 24 0 113 48 141
76 79 79 106 329 32 301 -10 -4 -15 -32 -18 -104 -3 -82 -7 -104 -26 -130 -70
-98 -210 -121 -304 -50 -65 50 -82 87 -88 192 -4 75 -8 90 -23 93 -9 2 -20 -4
-23 -13z"/>
<path d="M15341 810 c-56 -13 -65 -44 -29 -96 22 -32 58 -58 82 -59 6 -1 25
-7 41 -15 38 -17 73 -21 80 -9 4 5 13 9 21 9 16 0 30 10 81 57 48 45 45 92 -7
110 -39 13 -217 15 -269 3z m275 -24 c27 -20 16 -26 -68 -38 -101 -14 -218 4
-218 33 0 22 256 27 286 5z m-115 -51 c118 0 125 -1 115 -18 -47 -74 -219 -74
-281 0 l-30 36 35 -9 c19 -5 92 -9 161 -9z"/>
<path d="M2274 776 c-6 -17 2 -36 17 -36 12 0 12 37 -1 45 -6 3 -13 -1 -16 -9z"/>
<path d="M12762 770 c-17 -11 -32 -25 -32 -32 0 -6 -10 -22 -22 -35 -21 -22
-13 -34 9 -12 16 16 53 1 53 -22 0 -11 -5 -40 -11 -64 -18 -70 18 -139 95
-182 23 -13 2 -100 -27 -109 -21 -7 -21 -7 -2 -14 25 -10 37 2 41 37 6 58 14
73 37 73 19 0 25 -8 36 -47 8 -33 9 -49 2 -51 -25 -8 -9 -24 16 -17 37 9 40
13 19 28 -9 7 -21 29 -26 50 -8 36 -7 38 23 51 41 17 61 40 87 99 16 37 24 46
34 38 10 -9 12 -3 11 25 -2 33 -17 53 -38 54 -4 0 -21 -14 -37 -31 -28 -31
-30 -32 -72 -21 -24 6 -56 14 -71 17 -33 7 -48 39 -50 109 -3 66 -28 85 -75
56z m183 -204 c22 -10 35 -22 35 -33 0 -11 6 -25 13 -32 10 -11 9 -13 -6 -8
-13 5 -17 2 -15 -10 7 -41 -94 -38 -136 4 -66 65 10 120 109 79z"/>
<path d="M12834 555 c-3 -8 -4 -20 -1 -27 4 -8 6 -6 6 5 1 9 6 17 12 17 6 0 9
-7 5 -15 -7 -20 -4 -19 18 7 15 18 16 20 2 15 -9 -4 -16 -2 -16 3 0 15 -20 12
-26 -5z"/>
<path d="M3160 760 c0 -23 25 -27 33 -6 7 16 -1 26 -20 26 -7 0 -13 -9 -13
-20z"/>
<path d="M10404 769 c-8 -14 11 -33 25 -25 6 4 11 14 11 22 0 16 -26 19 -36 3z"/>
<path d="M11300 761 c0 -28 17 -35 29 -13 11 21 6 32 -16 32 -7 0 -13 -9 -13
-19z"/>
<path d="M19332 763 c5 -25 28 -28 28 -4 0 12 -6 21 -16 21 -9 0 -14 -7 -12
-17z"/>
<path d="M20220 760 c0 -15 5 -20 18 -18 9 2 17 10 17 18 0 8 -8 16 -17 18
-13 2 -18 -3 -18 -18z"/>
<path d="M2293 694 c-7 -18 17 -38 31 -24 11 11 1 40 -14 40 -6 0 -13 -7 -17
-16z"/>
<path d="M3147 704 c-4 -4 -7 -16 -7 -26 0 -20 25 -25 36 -7 8 13 -19 43 -29
33z"/>
<path d="M10425 701 c-8 -15 3 -31 21 -31 9 0 14 7 12 17 -4 20 -24 28 -33 14z"/>
<path d="M19357 704 c-14 -15 -6 -34 14 -34 14 0 19 5 17 17 -3 18 -20 27 -31
17z"/>
<path d="M20204 695 c-3 -8 -3 -19 1 -25 10 -16 35 7 28 26 -7 18 -22 18 -29
-1z"/>
<path d="M11281 691 c-16 -10 -6 -31 15 -31 8 0 14 9 14 20 0 22 -7 25 -29 11z"/>
<path d="M10456 631 c-3 -5 1 -14 8 -20 16 -13 32 2 21 19 -8 12 -22 13 -29 1z"/>
<path d="M19386 631 c-7 -11 14 -51 27 -51 5 0 7 12 5 27 -3 28 -22 41 -32 24z"/>
<path d="M20175 630 c-3 -5 -3 -15 1 -21 3 -6 0 -15 -7 -20 -7 -4 -11 -11 -7
-14 9 -9 48 32 48 50 0 17 -25 20 -35 5z"/>
<path d="M3110 604 c-17 -43 -2 -49 23 -10 14 21 14 25 1 30 -9 4 -18 -3 -24
-20z"/>
<path d="M2326 612 c-3 -5 8 -22 24 -37 32 -31 37 -54 18 -73 -8 -8 -9 -15 -2
-22 7 -7 23 3 48 29 42 43 42 68 1 49 -25 -11 -61 5 -50 22 3 5 2 15 -1 24 -7
17 -29 22 -38 8z"/>
<path d="M11247 608 c-12 -10 -14 -17 -7 -28 9 -13 12 -12 25 4 26 34 15 48
-18 24z"/>
<path d="M3024 559 c-7 -13 65 -91 78 -83 16 10 8 33 -23 63 -33 33 -44 37
-55 20z"/>
<path d="M10531 538 c-33 -34 -40 -58 -17 -58 18 0 78 68 71 81 -10 15 -21 11
-54 -23z"/>
<path d="M11160 557 c0 -19 66 -80 79 -73 19 12 -37 85 -66 86 -7 0 -13 -6
-13 -13z"/>
<path d="M19447 533 c-33 -33 -39 -53 -17 -53 12 0 70 56 70 68 0 25 -20 19
-53 -15z"/>
<path d="M20075 559 c-12 -18 72 -96 87 -81 9 9 8 16 -5 30 -9 10 -17 23 -17
29 0 6 -8 13 -17 17 -10 3 -23 8 -30 12 -6 3 -14 0 -18 -7z"/>
<path d="M2445 490 c-4 -6 -3 -14 0 -20 9 -15 35 -12 35 4 0 17 -27 29 -35 16z"/>
<path d="M2994 489 c-10 -17 13 -36 27 -22 12 12 4 33 -11 33 -5 0 -12 -5 -16
-11z"/>
<path d="M11128 482 c-7 -10 -21 -21 -30 -25 -10 -3 -18 -11 -18 -17 0 -15 28
-12 37 4 4 8 17 15 28 18 11 2 20 10 20 17 0 22 -22 24 -37 3z"/>
<path d="M19502 483 c4 -22 38 -30 38 -10 0 8 -7 18 -16 21 -23 9 -26 8 -22
-11z"/>
<path d="M10583 478 c2 -7 10 -13 17 -13 7 0 15 6 18 13 2 7 -5 12 -18 12 -13
0 -20 -5 -17 -12z"/>
<path d="M20042 478 c-14 -14 -16 -38 -4 -38 10 0 42 33 42 43 0 11 -25 8 -38
-5z"/>
<path d="M2496 451 c-3 -5 1 -14 8 -20 16 -13 32 2 21 19 -8 12 -22 13 -29 1z"/>
<path d="M2733 453 c-16 -6 -18 -89 -3 -98 22 -14 41 16 34 54 -7 41 -14 50
-31 44z"/>
<path d="M2943 445 c-3 -9 -3 -18 0 -22 10 -10 37 6 37 22 0 20 -29 20 -37 0z"/>
<path d="M10630 445 c0 -9 9 -15 21 -15 12 0 27 -7 34 -17 7 -9 17 -13 24 -9
17 11 -5 36 -30 36 -11 0 -19 5 -19 10 0 6 -7 10 -15 10 -8 0 -15 -7 -15 -15z"/>
<path d="M19564 449 c-10 -17 13 -36 27 -22 12 12 4 33 -11 33 -5 0 -12 -5
-16 -11z"/>
<path d="M19782 448 c-18 -18 -15 -87 4 -95 20 -8 34 13 34 53 0 37 -20 60
-38 42z"/>
<path d="M10844 425 c-8 -34 3 -75 21 -75 18 0 29 41 21 75 -4 14 -13 25 -21
25 -8 0 -17 -11 -21 -25z"/>
<path d="M19980 436 c-6 -8 -17 -13 -24 -10 -7 3 -18 -2 -25 -10 -17 -20 5
-32 26 -14 9 7 24 12 35 10 13 -2 18 3 18 17 0 24 -13 27 -30 7z"/>
<path d="M1305 430 c-8 -12 24 -60 40 -60 7 0 15 6 17 13 6 15 -48 61 -57 47z"/>
<path d="M11016 425 c-3 -9 1 -18 10 -22 19 -7 39 11 30 26 -10 16 -33 13 -40
-4z"/>
<path d="M2550 421 c0 -5 7 -14 15 -21 18 -15 42 1 31 19 -8 13 -46 15 -46 2z"/>
<path d="M2884 419 c-3 -6 -2 -15 2 -19 12 -12 38 5 30 19 -9 14 -23 14 -32 0z"/>
<path d="M19617 424 c-9 -10 2 -24 19 -24 8 0 14 7 14 15 0 15 -21 21 -33 9z"/>
<path d="M10744 409 c-7 -12 12 -29 33 -29 21 0 24 19 4 29 -25 14 -28 14 -37
0z"/>
<path d="M19687 413 c-4 -3 -7 -12 -7 -20 0 -15 26 -18 34 -4 7 11 -18 33 -27
24z"/>
<path d="M2625 400 c-8 -12 20 -24 35 -15 6 3 8 11 5 16 -8 12 -32 12 -40 -1z"/>
<path d="M2815 400 c-3 -5 -4 -14 0 -20 8 -13 35 -1 35 16 0 16 -26 19 -35 4z"/>
<path d="M10940 394 c0 -9 7 -14 17 -12 25 5 28 28 4 28 -12 0 -21 -6 -21 -16z"/>
<path d="M19865 399 c-10 -15 1 -23 20 -15 9 3 13 10 10 16 -8 13 -22 13 -30
-1z"/>
<path d="M745 190 c-137 -3 -198 -7 -135 -8 l114 -2 -54 -55 c-30 -30 -60 -55
-68 -55 -7 0 -40 27 -74 60 l-62 60 -161 -2 c-141 -2 -149 -2 -65 -7 l95 -6
-52 -55 -52 -55 -61 61 -61 60 -55 -50 c-37 -35 -54 -59 -54 -76 0 -22 4 -20
53 28 l54 53 51 -55 c45 -50 55 -56 91 -56 22 0 43 4 46 10 3 5 -3 10 -15 10
-19 0 -19 3 11 40 l33 40 38 -37 39 -38 41 44 41 43 37 -43 c21 -24 34 -45 29
-47 -32 -12 1 -23 64 -21 86 3 117 12 65 19 l-37 5 36 39 36 39 38 -41 37 -41
41 44 41 44 39 -42 40 -42 -30 -6 c-61 -13 -40 -19 62 -18 57 1 94 4 82 6 -31
6 -28 21 8 62 l31 33 43 -42 42 -42 39 47 38 48 39 -44 c36 -40 37 -44 21 -56
-15 -11 -3 -13 74 -13 55 0 92 4 92 10 0 6 -11 10 -25 10 -32 0 -31 8 5 48 37
40 39 40 73 -3 36 -45 48 -44 89 5 l33 41 38 -46 c39 -46 38 -49 -8 -58 -11
-2 22 -4 72 -4 52 -1 90 3 87 8 -3 5 -12 9 -20 9 -20 0 -18 2 20 43 l33 35 40
-39 39 -40 43 46 c24 26 44 45 45 43 0 -2 16 -22 34 -45 l33 -43 -33 -1 -33
-1 30 -8 c45 -11 173 -11 180 0 4 6 -7 10 -26 10 l-33 0 21 20 c12 10 28 29
37 41 l15 22 42 -41 41 -42 36 44 36 45 36 -42 c19 -22 34 -47 32 -54 -2 -10
16 -13 73 -13 70 0 105 15 51 22 l-24 3 34 40 c30 35 36 38 44 23 6 -9 25 -27
42 -39 l31 -23 37 42 36 42 37 -45 c33 -39 35 -45 18 -45 -11 0 -23 -4 -26
-10 -4 -6 22 -10 70 -10 57 0 76 3 72 12 -2 7 9 30 25 50 l29 37 34 -37 34
-37 43 42 43 42 35 -42 c19 -23 34 -48 32 -55 -2 -10 11 -12 55 -10 46 2 57 6
56 19 -2 8 12 30 31 48 l33 32 40 -41 39 -42 43 47 43 47 36 -43 c21 -24 36
-48 35 -54 -4 -14 124 -18 132 -5 3 6 -3 10 -14 10 -18 0 -16 5 17 39 l37 40
33 -32 33 -32 35 40 c33 38 35 39 47 21 7 -11 22 -30 34 -43 13 -14 20 -30 16
-39 -5 -14 5 -15 93 -9 107 8 136 15 61 15 -56 0 -56 -1 -12 47 l34 38 39 -38
39 -38 32 38 c30 36 33 37 43 18 6 -10 22 -30 35 -43 13 -12 23 -26 23 -30 0
-9 157 -8 166 1 4 4 -9 7 -29 7 -45 0 -46 7 -4 48 l33 32 29 -30 c37 -38 45
-38 86 5 l34 34 42 -44 c23 -25 38 -45 33 -45 -6 0 -10 -4 -10 -8 0 -10 136
-9 146 1 4 4 -2 7 -14 7 -21 0 -30 15 -14 22 4 1 17 15 28 30 l21 27 33 -35
c43 -43 51 -43 93 6 l34 40 44 -42 c24 -23 43 -48 41 -55 -2 -9 9 -12 40 -9
24 2 57 5 73 6 l30 2 -27 7 -26 6 34 39 34 40 40 -39 40 -39 43 41 42 41 42
-44 42 -44 -42 -1 -42 -2 45 -8 c73 -13 142 -11 137 3 -2 7 9 30 26 51 l30 38
36 -35 c46 -45 52 -45 94 6 l35 42 41 -44 c22 -25 40 -51 41 -57 0 -15 83 -17
115 -3 11 5 16 9 11 9 -5 1 9 19 30 40 l38 40 38 -35 c48 -43 49 -43 95 10
l37 43 48 -46 c26 -25 48 -52 48 -59 0 -8 13 -12 38 -11 47 2 73 9 68 17 -2 4
11 25 30 47 l33 40 44 -43 44 -43 40 46 40 47 41 -43 c33 -36 38 -45 25 -50
-29 -10 0 -17 75 -18 46 -1 71 3 67 9 -3 6 -13 10 -21 10 -21 0 -17 11 18 47
l32 33 42 -41 41 -41 38 46 38 46 36 -42 c20 -23 35 -48 33 -56 -3 -14 4 -14
123 -2 6 1 3 4 -6 8 -14 6 -12 13 17 46 l34 40 41 -40 41 -39 38 42 38 43 37
-41 38 -42 -29 -13 c-26 -11 -19 -12 70 -13 88 -1 119 9 64 21 -13 2 -10 10
17 43 l34 39 38 -43 39 -44 39 47 38 47 38 -43 c26 -31 34 -46 27 -55 -12 -15
81 -16 103 -2 8 5 10 9 6 9 -5 0 6 18 24 41 l32 40 36 -35 c46 -45 51 -45 90
4 l32 40 32 -38 c18 -20 36 -40 42 -44 5 -4 -1 -8 -15 -8 -14 0 -32 -5 -40
-11 -11 -7 12 -9 77 -6 51 2 96 7 100 10 3 4 -4 7 -16 7 -21 0 -21 1 6 35 l27
34 24 -22 c24 -22 41 -13 42 21 0 6 3 12 8 12 13 0 83 -80 70 -81 -7 0 -4 -4
7 -8 24 -10 97 -2 90 9 -4 7 10 52 22 69 1 2 14 -11 29 -29 l27 -32 33 36 c41
44 40 44 81 0 26 -29 31 -40 22 -50 -14 -17 96 -20 121 -4 13 8 12 10 -3 10
-15 0 -13 7 14 40 l33 40 38 -37 38 -37 43 41 42 42 28 -40 c16 -21 33 -39 39
-39 7 0 6 -5 -1 -14 -10 -12 -4 -14 38 -13 42 2 89 17 52 17 -7 0 0 12 16 28
16 15 32 34 35 42 4 11 15 5 47 -25 l42 -40 40 42 39 43 38 -42 c20 -22 37
-46 37 -52 0 -14 104 -20 136 -7 23 9 23 10 -8 10 -37 1 -39 4 -18 28 8 10 21
27 28 37 13 18 16 17 56 -23 l43 -43 29 34 c15 18 28 36 29 41 1 19 31 3 59
-32 38 -47 38 -55 6 -49 -14 3 -28 2 -31 -3 -3 -5 40 -8 96 -7 55 0 100 5 100
9 0 5 -9 9 -20 9 -27 0 -25 9 11 49 l31 33 37 -36 c46 -44 49 -44 86 4 35 46
31 46 79 -7 l38 -43 -28 0 c-21 0 -25 -3 -15 -9 16 -10 140 -12 156 -3 5 3 0
9 -12 12 -20 5 -20 6 12 45 l34 40 43 -42 43 -42 38 45 39 45 34 -43 c19 -24
32 -49 29 -56 -4 -10 11 -13 63 -11 74 2 102 11 60 19 l-26 5 33 39 32 39 39
-43 38 -42 43 48 c26 30 46 45 50 38 5 -5 21 -27 36 -47 16 -20 26 -41 22 -47
-4 -6 18 -10 64 -10 72 0 86 5 52 18 -17 6 -16 10 14 46 l34 38 31 -36 c41
-46 47 -45 92 6 l36 43 23 -29 c12 -15 31 -37 42 -47 21 -19 21 -19 -9 -19
-22 0 -26 -3 -14 -10 17 -11 101 -11 145 0 24 6 26 8 8 9 -30 1 -29 5 9 47
l32 35 41 -41 42 -41 40 47 41 47 38 -43 c22 -24 38 -49 36 -57 -2 -10 14 -13
68 -13 71 0 85 5 51 18 -17 6 -16 10 14 45 l34 39 38 -42 38 -43 41 48 42 48
41 -43 c22 -23 39 -47 38 -54 -3 -14 127 -21 151 -7 14 8 10 10 -21 11 l-38 0
32 40 33 40 41 -40 42 -41 42 47 41 47 39 -44 c21 -24 35 -46 30 -47 -31 -12
2 -22 69 -21 68 1 74 2 50 13 l-27 11 38 38 37 37 40 -41 39 -40 41 47 41 47
41 -44 c33 -36 38 -45 24 -50 -12 -4 -11 -7 9 -12 37 -10 127 -8 134 3 3 6 -3
10 -15 10 -20 0 -20 1 7 37 15 21 28 40 30 42 1 2 21 -15 45 -38 l43 -41 26
29 c15 16 31 37 36 46 9 15 15 12 51 -26 33 -36 38 -45 25 -50 -30 -10 3 -18
77 -18 64 0 84 11 38 21 -13 2 -10 11 18 42 l34 40 41 -40 41 -39 36 43 35 43
44 -43 44 -43 -33 -12 c-30 -11 -27 -12 47 -12 44 0 91 2 105 6 l25 7 -27 6
-26 5 34 40 34 40 22 -26 c49 -55 55 -56 98 -14 l40 39 40 -39 c40 -39 41 -49
5 -58 -11 -2 13 -5 54 -5 69 0 154 16 93 17 -25 1 -21 14 18 60 l21 24 40 -39
41 -39 39 44 39 44 39 -44 39 -44 -39 -3 c-80 -6 -36 -20 60 -19 55 0 98 4 95
9 -3 4 -11 8 -18 8 -7 0 3 18 23 40 l35 40 36 -35 c45 -44 51 -44 92 5 l33 41
45 -46 c44 -45 44 -45 17 -45 -15 0 -27 -4 -27 -10 0 -12 49 -12 105 -1 22 5
37 9 33 10 -4 0 10 20 31 43 l39 42 35 -37 c43 -46 48 -46 90 5 l35 42 40 -44
c22 -25 36 -47 31 -48 -5 -2 -9 -8 -9 -13 0 -12 131 -11 150 1 12 8 9 10 -13
10 l-29 0 33 41 32 40 42 -41 42 -41 40 45 41 46 36 -45 c21 -25 32 -45 26
-45 -6 0 -8 -5 -5 -10 4 -6 27 -8 53 -6 26 3 50 5 54 5 5 1 7 5 5 9 -1 4 13
25 31 47 l33 40 41 -44 42 -44 40 46 41 47 28 -40 c16 -22 34 -41 40 -41 7 -1
-4 -5 -23 -9 -33 -7 -32 -7 16 -9 28 0 73 -3 100 -6 45 -5 47 -4 22 8 l-26 12
35 39 36 39 39 -43 39 -42 37 46 37 46 36 -43 c20 -23 34 -48 32 -55 -4 -9 7
-11 43 -8 27 2 63 5 79 6 l30 2 -27 7 -27 6 36 39 35 38 40 -38 39 -39 40 42
39 42 39 -42 40 -42 -30 -6 c-58 -13 -40 -18 61 -17 89 0 120 9 68 20 -13 2
-10 10 18 42 l34 39 37 -43 37 -43 41 48 42 48 41 -44 41 -44 -39 -6 c-76 -11
-52 -19 53 -19 60 0 109 4 112 10 3 6 -3 10 -15 10 -20 0 -20 1 7 38 15 20 29
39 30 41 2 3 23 -14 47 -38 l43 -42 40 45 40 46 40 -43 c22 -23 38 -47 36 -52
-2 -7 25 -11 72 -12 41 0 72 4 69 8 -3 5 -14 9 -26 9 -18 0 -17 4 13 39 42 49
45 49 91 4 l38 -37 45 44 45 45 39 -45 c31 -35 37 -48 28 -59 -10 -12 61 -13
121 -1 1 0 2 4 2 9 0 5 15 25 34 46 l35 38 42 -37 c53 -45 50 -45 93 6 l36 41
39 -44 c29 -33 36 -47 28 -57 -8 -11 2 -12 54 -10 35 2 62 6 59 10 -5 8 59 78
72 78 4 0 23 -14 43 -32 l36 -31 42 41 42 41 38 -44 c34 -40 36 -45 20 -55
-14 -9 -6 -10 37 -6 30 3 66 6 80 6 20 0 22 2 10 10 -12 8 -9 16 22 47 l38 37
43 -43 44 -42 39 45 39 45 38 -45 c21 -24 33 -44 27 -44 -6 0 -9 -4 -6 -8 3
-4 49 -7 102 -5 104 3 143 13 53 13 l-54 0 37 37 38 37 33 -32 c42 -40 48 -40
87 4 l31 36 38 -41 c22 -24 34 -44 28 -50 -5 -5 17 -8 57 -7 38 0 65 5 63 11
-1 8 20 45 49 84 2 2 22 -13 46 -33 l43 -37 38 41 c22 23 40 40 40 38 1 -2 20
-22 41 -45 l39 -42 -24 -10 c-18 -7 -3 -9 60 -10 71 0 81 2 66 13 -17 12 -17
15 10 50 l28 37 39 -38 40 -38 39 45 38 44 38 -44 c21 -24 37 -50 35 -57 -2
-10 17 -13 78 -13 47 0 80 4 80 10 0 6 -14 10 -30 10 l-31 0 32 40 33 40 36
-35 c45 -44 51 -44 92 5 l33 39 38 -44 38 -44 -33 -10 c-27 -8 -18 -9 54 -10
48 -1 90 3 93 9 3 6 -1 10 -10 10 -11 0 -6 10 17 35 30 32 34 33 46 17 12 -16
15 -14 40 16 l27 33 45 -60 c25 -33 53 -60 63 -61 27 0 21 12 -38 75 -30 33
-57 67 -60 75 -5 16 -287 22 -302 6 -3 -3 45 -6 107 -6 l114 0 -54 -55 c-30
-30 -62 -55 -71 -55 -9 0 -42 27 -72 60 l-56 60 -76 0 c-42 0 -74 -4 -71 -9 6
-9 -97 -111 -112 -111 -13 0 -112 89 -112 101 0 4 48 10 108 12 95 2 -253 6
-863 8 -616 2 -2073 -6 -1966 -11 l124 -5 -64 -53 c-35 -28 -69 -52 -75 -52
-6 0 -37 27 -68 60 l-57 60 -69 0 -68 0 -62 -60 c-34 -33 -67 -60 -73 -60 -5
0 -37 27 -70 60 l-60 60 -68 0 -68 0 -57 -60 c-31 -33 -62 -60 -69 -60 -7 0
-38 27 -69 60 l-57 60 -64 0 -64 0 -57 -60 c-31 -33 -65 -60 -74 -60 -19 0
-120 85 -120 101 0 5 51 10 113 11 61 1 -5 4 -148 7 -143 3 -280 3 -305 0 -29
-4 -3 -7 75 -8 l120 -1 -55 -55 c-30 -30 -62 -55 -71 -55 -9 0 -42 27 -74 61
l-58 61 -179 0 c-99 -1 -182 -3 -186 -6 -3 -3 46 -6 108 -6 l114 0 -54 -55
c-30 -30 -59 -55 -65 -55 -13 0 -115 98 -115 111 0 5 -33 9 -74 9 l-75 0 -57
-60 c-31 -33 -63 -60 -70 -60 -7 0 -41 27 -76 60 l-63 60 -190 -2 c-175 -2
-181 -2 -71 -8 l118 -5 -55 -52 c-31 -29 -62 -53 -70 -53 -8 0 -40 27 -71 60
l-57 60 -69 0 -69 0 -57 -60 c-31 -33 -63 -60 -70 -60 -7 0 -42 28 -78 62
l-64 63 -184 -5 -183 -4 119 -6 118 -5 -62 -59 -62 -60 -65 67 -65 67 -67 0
-68 0 -60 -60 c-33 -33 -66 -60 -73 -60 -7 0 -40 27 -73 60 l-60 60 -68 0 -68
0 -57 -60 c-31 -33 -62 -60 -68 -60 -7 0 -36 25 -66 55 l-54 54 115 4 c78 2
54 3 -78 5 -152 2 -193 -1 -193 -11 0 -16 -91 -107 -107 -107 -6 0 -37 24 -69
53 l-57 52 114 6 c104 5 98 5 -72 7 l-186 2 -60 -60 c-33 -33 -65 -60 -72 -60
-6 0 -39 27 -73 59 l-61 60 -76 1 c-268 5 -470 -1 -473 -13 -2 -6 -27 -34 -56
-61 -62 -58 -71 -56 -149 27 l-45 49 -185 -1 c-102 0 -188 -3 -191 -6 -3 -3
48 -5 113 -5 l119 0 -54 -55 c-30 -30 -61 -55 -69 -55 -8 0 -41 27 -74 60
l-60 60 -68 0 -68 0 -57 -60 c-31 -33 -62 -60 -67 -60 -6 0 -37 27 -71 61
l-61 60 -374 -1 c-206 0 -377 -3 -379 -5 -3 -3 46 -5 108 -5 l114 0 -54 -55
c-30 -30 -58 -55 -63 -55 -4 0 -35 27 -69 60 l-62 60 -67 0 -68 0 -57 -60
c-31 -33 -62 -60 -69 -60 -13 0 -115 100 -115 112 0 5 -36 8 -80 8 -61 0 -80
-3 -80 -14 0 -17 -95 -106 -113 -106 -8 0 -40 27 -71 60 l-57 60 -64 0 -64 0
-57 -60 c-31 -33 -62 -60 -68 -60 -12 0 -106 91 -106 103 0 3 48 8 108 10 59
1 -163 3 -493 3 -330 0 -553 -2 -496 -5 l104 -6 -48 -52 c-26 -29 -52 -53 -59
-53 -15 0 -123 109 -111 112 27 5 -278 13 -402 10 -104 -3 -143 -7 -143 -16 0
-13 -103 -106 -117 -106 -5 0 -33 25 -63 55 l-54 55 114 0 c62 0 111 2 108 5
-7 8 -588 8 -595 1 -4 -3 45 -6 107 -6 l114 0 -54 -55 c-30 -30 -59 -55 -65
-55 -13 0 -115 98 -115 111 0 5 -81 8 -197 7 -178 -2 -186 -3 -79 -8 l118 -5
-55 -52 c-31 -29 -60 -53 -66 -53 -5 0 -38 27 -73 60 l-63 60 -1100 0 -1101 0
-64 -60 c-36 -33 -69 -60 -73 -60 -11 0 -107 91 -107 101 0 5 48 10 108 11 83
2 67 3 -73 8 -99 3 -229 3 -290 0 l-110 -5 108 -5 108 -5 -33 -30 c-18 -17
-45 -41 -60 -54 l-27 -24 -55 44 c-30 24 -58 52 -61 62 -7 18 -145 27 -145 8
0 -4 -27 -31 -60 -60 l-60 -52 -60 53 -61 53 98 6 c54 3 -35 5 -197 5 -174 0
-246 -2 -176 -6 l118 -5 -55 -53 c-31 -28 -61 -52 -66 -52 -16 0 -119 93 -120
108 -1 13 18 13 -577 15 -246 2 -350 -1 -347 -9 4 -12 -100 -114 -117 -114 -6
0 -36 24 -67 53 l-55 52 113 6 c63 3 -20 5 -186 5 -165 0 -251 -2 -191 -3
l110 -4 -54 -54 c-30 -30 -59 -55 -65 -55 -15 0 -105 93 -105 108 0 8 -23 12
-74 12 l-75 0 -57 -60 c-31 -33 -64 -60 -71 -60 -17 0 -123 88 -123 101 0 5
51 10 113 12 76 2 50 4 -83 5 -107 2 -220 4 -250 5 -30 1 -167 0 -305 -3z
m1875 -65 c-68 -67 -74 -67 -134 -2 l-49 52 114 5 c63 3 116 4 119 2 2 -2 -20
-27 -50 -57z m10088 -2 l-57 -56 -26 17 c-15 10 -45 34 -67 54 l-41 37 119 5
c65 3 121 4 124 2 2 -1 -21 -28 -52 -59z m-11648 2 c-30 -30 -60 -55 -68 -55
-14 0 -112 88 -112 101 0 5 53 9 117 9 l117 0 -54 -55z m1990 47 c0 -13 -98
-105 -108 -101 -12 5 -112 98 -112 104 0 3 50 5 110 5 61 0 110 -4 110 -8z
m1940 -1 c0 -5 -25 -30 -55 -56 l-55 -47 -49 41 c-87 73 -88 71 43 71 64 0
116 -4 116 -9z m360 -46 c-30 -30 -60 -55 -68 -55 -17 0 -87 57 -107 87 l-15
23 122 0 122 0 -54 -55z m450 51 c0 -9 -106 -106 -116 -106 -6 0 -37 25 -70
55 l-59 54 123 1 c67 0 122 -2 122 -4z m390 -51 c-59 -60 -69 -63 -116 -37
-33 18 -104 77 -104 87 0 3 62 5 137 5 l137 0 -54 -55z m425 0 c-33 -30 -64
-55 -69 -55 -7 0 -64 45 -130 102 -6 4 51 8 125 8 l134 -1 -60 -54z m1585 0
c-30 -30 -60 -55 -67 -55 -6 0 -38 25 -70 55 l-58 54 125 1 124 0 -54 -55z
m690 48 c0 -12 -83 -93 -95 -93 -6 0 -33 23 -60 50 l-49 50 102 0 c56 0 102
-3 102 -7z m300 -48 c-30 -30 -59 -55 -65 -55 -6 0 -35 25 -65 55 l-54 55 119
0 119 0 -54 -55z m1930 0 c-30 -30 -59 -55 -65 -55 -6 0 -35 25 -65 55 l-54
55 119 0 119 0 -54 -55z m7555 0 c-33 -30 -65 -55 -71 -55 -12 0 -122 91 -123
103 -1 4 56 7 127 7 l127 -1 -60 -54z m435 14 c-86 -77 -83 -77 -138 -30 -89
74 -91 71 54 71 l129 -1 -45 -40z m460 38 c0 -7 -128 -107 -137 -107 -5 0 -33
25 -63 55 l-54 55 127 0 c70 0 127 -1 127 -3z m337 -52 c-33 -30 -62 -55 -66
-55 -4 0 -31 25 -61 55 l-54 55 119 0 120 0 -58 -55z m393 0 c-30 -30 -61 -55
-69 -55 -16 0 -111 88 -111 102 0 4 53 8 117 8 l117 0 -54 -55z m390 0 c-30
-30 -57 -55 -61 -55 -3 0 -32 25 -65 55 l-59 54 120 1 119 0 -54 -55z"/>
<path d="M9833 183 c32 -2 81 -2 110 0 29 2 3 3 -58 3 -60 0 -84 -1 -52 -3z"/>
<path d="M10218 183 c28 -2 76 -2 105 0 28 2 5 3 -53 3 -58 0 -81 -1 -52 -3z"/>
<path d="M11388 183 c28 -2 76 -2 105 0 28 2 5 3 -53 3 -58 0 -81 -1 -52 -3z"/>
<path d="M12183 183 c31 -2 83 -2 115 0 31 2 5 3 -58 3 -63 0 -89 -1 -57 -3z"/>
<path d="M12983 183 c31 -2 83 -2 115 0 31 2 5 3 -58 3 -63 0 -89 -1 -57 -3z"/>
<path d="M14163 183 c31 -2 83 -2 115 0 31 2 5 3 -58 3 -63 0 -89 -1 -57 -3z"/>
<path d="M14953 183 c31 -2 83 -2 115 0 31 2 5 3 -58 3 -63 0 -89 -1 -57 -3z"/>
<path d="M15753 183 c32 -2 81 -2 110 0 29 2 3 3 -58 3 -60 0 -84 -1 -52 -3z"/>
<path d="M17323 183 c32 -2 81 -2 110 0 29 2 3 3 -58 3 -60 0 -84 -1 -52 -3z"/>
<path d="M17713 183 c32 -2 81 -2 110 0 29 2 3 3 -58 3 -60 0 -84 -1 -52 -3z"/>
<path d="M18675 40 c8 -13 42 -13 50 0 4 6 -7 10 -25 10 -18 0 -29 -4 -25 -10z"/>
</g>
</svg>
